<?xml version="1.0" standalone="no"?>
<!DOCTYPE svg PUBLIC "-//W3C//DTD SVG 20010904//EN"
 "http://www.w3.org/TR/2001/REC-SVG-20010904/DTD/svg10.dtd">
<svg version="1.0" xmlns="http://www.w3.org/2000/svg"
 width="1024.000000pt" height="1024.000000pt" viewBox="0 0 1024.000000 1024.000000"
 preserveAspectRatio="xMidYMid meet">
<metadata>
Created by potrace 1.14, written by Peter Selinger 2001-2017
</metadata>
<g transform="translate(0.000000,1024.000000) scale(0.100000,-0.100000)"
fill="#000000" stroke="none">
<path d="M1149 7945 c-1 -3 -2 -11 -3 -17 -1 -12 -101 -67 -158 -87 -41 -15
-34 -37 20 -66 26 -15 38 -23 27 -19 -11 4 -33 9 -50 11 l-30 4 26 -15 c14 -8
38 -13 55 -11 32 3 156 -25 194 -45 14 -7 33 -19 43 -28 18 -16 34 -11 23 7
-4 5 -25 24 -49 43 -23 18 -36 25 -29 16 12 -16 11 -16 -15 -8 -168 53 -235
79 -228 90 8 13 169 75 185 71 8 -1 23 -10 33 -18 15 -15 17 -15 17 0 0 8 -12
25 -27 37 -22 17 -25 23 -13 30 13 8 12 10 -2 10 -10 0 -19 -2 -19 -5z"/>
<path d="M2425 7662 c21 -23 40 -42 42 -42 10 0 -15 30 -45 54 l-37 30 40 -42z"/>
<path d="M780 7651 c0 -5 19 -14 43 -20 49 -12 216 -70 267 -93 31 -15 33 -16
10 -17 -36 -1 -10 -21 31 -24 20 -1 50 -14 69 -29 34 -27 50 -28 50 -4 0 17
-95 61 -111 51 -7 -5 -10 -4 -6 2 9 14 -131 77 -251 114 -108 33 -102 32 -102
20z"/>
<path d="M554 7634 c3 -7 -3 -15 -12 -17 -14 -4 -13 -5 3 -6 11 -1 56 -10 100
-21 123 -30 107 -9 -26 34 -48 16 -68 19 -65 10z"/>
<path d="M840 7611 c0 -5 7 -12 16 -15 24 -9 27 -7 10 9 -17 17 -26 19 -26 6z"/>
<path d="M68 7578 c11 -14 9 -18 -15 -27 -24 -10 -24 -10 -3 -5 34 8 42 8 65
-1 l20 -7 -20 17 c-11 9 -29 21 -40 27 -18 10 -18 9 -7 -4z"/>
<path d="M135 7569 c22 -12 51 -30 64 -40 23 -19 150 -63 158 -56 12 13 -169
104 -222 111 l-40 6 40 -21z"/>
<path d="M948 7563 c7 -3 16 -2 19 1 4 3 -2 6 -13 5 -11 0 -14 -3 -6 -6z"/>
<path d="M1770 7472 c0 -12 86 -29 107 -21 16 6 15 7 -7 12 -51 11 -100 16
-100 9z"/>
<path d="M1050 7426 c0 -2 7 -7 16 -10 8 -3 12 -2 9 4 -6 10 -25 14 -25 6z"/>
<path d="M2004 7375 c4 -24 16 -30 16 -7 0 12 -4 22 -9 22 -5 0 -8 -7 -7 -15z"/>
<path d="M658 7373 c7 -3 16 -2 19 1 4 3 -2 6 -13 5 -11 0 -14 -3 -6 -6z"/>
<path d="M81 7360 c-12 -7 44 -27 111 -40 27 -5 41 -3 49 6 9 11 6 14 -17 14
-16 0 -52 6 -80 14 -29 7 -57 10 -63 6z"/>
<path d="M1827 7344 c-4 -4 0 -14 8 -23 8 -9 27 -30 42 -48 26 -30 29 -31 45
-14 16 16 16 17 -2 29 -17 10 -20 10 -20 -3 0 -12 -4 -11 -19 4 -11 11 -21 27
-23 37 -3 19 -20 28 -31 18z"/>
<path d="M2915 7330 c10 -11 20 -20 23 -20 3 0 -3 9 -13 20 -10 11 -20 20 -23
20 -3 0 3 -9 13 -20z"/>
<path d="M885 7330 c28 -12 47 -12 40 0 -3 6 -18 10 -33 9 -24 0 -25 -1 -7 -9z"/>
<path d="M2201 7337 c2 -1 15 -11 29 -22 l25 -20 -19 23 c-11 12 -24 22 -29
22 -6 0 -8 -1 -6 -3z"/>
<path d="M0 7297 l0 -34 101 -8 c86 -6 104 -4 117 9 15 15 14 16 -13 16 -26 0
-101 18 -184 45 -19 6 -21 2 -21 -28z"/>
<path d="M658 7303 c7 -3 16 -2 19 1 4 3 -2 6 -13 5 -11 0 -14 -3 -6 -6z"/>
<path d="M2980 7246 c0 -2 8 -10 18 -17 15 -13 16 -12 3 4 -13 16 -21 21 -21
13z"/>
<path d="M3110 7240 c0 -5 5 -10 10 -10 6 0 10 5 10 10 0 6 -4 10 -10 10 -5 0
-10 -4 -10 -10z"/>
<path d="M2573 7186 c0 -7 20 -20 44 -29 24 -9 41 -12 38 -7 -3 6 -11 10 -17
10 -5 0 -22 9 -37 19 -19 14 -28 16 -28 7z"/>
<path d="M3228 7133 c36 -35 68 -60 71 -58 3 3 -6 13 -20 22 -13 10 -45 35
-70 58 -25 22 -17 12 19 -22z"/>
<path d="M1340 7183 c0 -11 68 -103 75 -103 4 0 -39 65 -72 109 -2 2 -3 0 -3
-6z"/>
<path d="M2545 7170 c3 -5 8 -10 11 -10 2 0 4 5 4 10 0 6 -5 10 -11 10 -5 0
-7 -4 -4 -10z"/>
<path d="M1979 7157 c8 -10 28 -28 45 -40 17 -12 25 -14 19 -6 -7 9 -9 20 -5
24 4 5 1 5 -6 1 -8 -5 -24 1 -40 15 -14 13 -20 16 -13 6z"/>
<path d="M0 7019 c0 -35 2 -37 43 -47 81 -19 121 -6 133 43 l7 29 -27 -17
c-28 -19 -87 -16 -114 6 -9 7 -11 5 -6 -9 6 -14 2 -13 -14 6 l-21 25 -1 -36z"/>
<path d="M98 7033 c7 -3 16 -2 19 1 4 3 -2 6 -13 5 -11 0 -14 -3 -6 -6z"/>
<path d="M2530 6955 c19 -19 36 -35 39 -35 3 0 -10 16 -29 35 -19 19 -36 35
-39 35 -3 0 10 -16 29 -35z"/>
<path d="M1440 6965 c-14 -16 -10 -18 14 -9 9 3 16 10 16 15 0 14 -16 11 -30
-6z"/>
<path d="M6 6942 c-8 -13 9 -18 67 -21 28 -2 47 2 47 8 0 6 -18 11 -39 11 -22
0 -46 3 -54 6 -8 3 -18 1 -21 -4z"/>
<path d="M567 6904 c-12 -13 -8 -23 16 -35 19 -10 20 -10 11 2 -6 8 -13 20
-15 27 -3 7 -8 10 -12 6z"/>
<path d="M8335 6820 c-22 -11 -56 -26 -75 -33 -28 -11 -31 -14 -17 -20 11 -4
16 -3 12 3 -3 6 2 10 12 10 10 1 43 14 73 30 61 32 57 40 -5 10z"/>
<path d="M1625 6714 c-16 -8 -41 -24 -55 -35 -14 -11 -20 -18 -14 -15 5 2 31
6 57 7 25 2 44 6 41 11 -3 4 0 8 7 8 8 0 9 3 0 13 -6 8 -8 17 -4 20 10 11 1 8
-32 -9z"/>
<path d="M8055 6705 c-27 -13 -43 -24 -35 -24 8 0 35 11 60 24 58 31 41 31
-25 0z"/>
<path d="M7910 6644 c-38 -21 -72 -54 -56 -54 8 0 116 70 116 75 0 9 -15 4
-60 -21z"/>
<path d="M3980 6633 c-25 -2 -101 -12 -170 -23 -69 -10 -161 -22 -205 -26 -44
-3 -85 -11 -92 -16 -6 -5 -22 -6 -35 -3 -44 11 -160 -19 -208 -54 -25 -18 -81
-56 -125 -85 -91 -59 -233 -172 -282 -223 -17 -19 -37 -32 -43 -28 -6 4 -9 1
-8 -7 2 -7 -5 -13 -15 -13 -9 0 -27 -12 -40 -26 -12 -14 -17 -18 -12 -10 6 9
-4 5 -22 -8 -18 -12 -33 -25 -33 -28 0 -3 8 1 18 8 9 7 6 1 -7 -14 -27 -29
-42 -38 -20 -10 12 15 12 16 -3 10 -14 -5 -18 -1 -18 18 0 20 -7 26 -39 35
-50 13 -189 16 -201 4 -15 -15 -23 -97 -15 -159 6 -51 10 -57 41 -72 46 -22
43 -52 -10 -112 -20 -23 -20 -24 -1 -17 11 4 32 10 48 13 l27 6 0 -79 c1 -50
6 -88 15 -104 8 -14 14 -47 15 -74 0 -48 0 -49 20 -31 11 10 20 13 20 8 0 -6
14 -9 30 -7 28 3 30 2 20 -16 -19 -36 19 -18 77 36 l27 25 17 -22 c17 -23 15
-24 57 28 14 19 23 21 52 15 l35 -8 -56 -37 c-62 -41 -116 -90 -139 -125 -11
-17 -27 -25 -54 -28 -22 -2 -42 -7 -45 -12 -3 -5 -15 -8 -26 -6 -11 2 -74 6
-140 10 -66 3 -136 8 -155 9 -19 2 -41 3 -47 4 -19 1 -16 39 7 105 20 59 83
170 103 183 6 3 1 -8 -12 -26 -17 -23 -24 -48 -26 -91 -1 -33 2 -60 6 -60 9 0
13 28 10 61 -1 9 9 42 23 72 13 31 22 65 19 76 -5 19 -9 16 -34 -19 -59 -81
-93 -144 -120 -224 l-28 -81 -43 -8 c-68 -13 -123 -3 -165 30 -21 16 -63 41
-93 57 l-55 28 50 -47 c28 -25 40 -41 28 -35 -19 9 -22 8 -17 -5 9 -23 -1 -18
-42 17 -25 22 -46 32 -71 32 -29 1 -35 5 -40 28 -15 75 -255 90 -398 24 -29
-13 -80 -49 -112 -79 -67 -61 -126 -99 -193 -122 -52 -18 -100 -61 -100 -88 0
-39 31 -85 68 -101 35 -14 35 -15 10 -15 -34 -1 -35 -3 -42 -84 -6 -65 -6 -67
14 -55 16 10 27 9 62 -3 44 -16 46 -19 88 -139 7 -19 19 -47 26 -62 8 -14 14
-35 14 -46 0 -25 4 -28 55 -38 l39 -7 -17 24 c-62 84 -97 240 -64 283 18 25
37 13 37 -24 0 -79 49 -218 89 -254 11 -11 21 -14 21 -8 0 6 -5 14 -10 17 -36
22 -74 164 -61 230 l7 40 13 -60 c26 -119 92 -235 135 -235 12 0 37 15 55 34
37 38 34 61 -13 85 -28 15 -40 37 -29 54 9 14 4 78 -7 92 -4 6 -4 19 0 29 6
19 7 19 12 -2 5 -18 13 -22 46 -22 l40 0 -15 40 c-16 41 -39 52 -49 25 -7 -17
-24 -20 -24 -5 0 18 41 52 56 46 8 -3 12 -2 9 3 -12 21 16 20 36 0 16 -16 23
-18 29 -9 10 15 23 -74 15 -99 -3 -10 -1 -40 5 -66 6 -26 9 -50 6 -52 -2 -2
-14 15 -27 38 -33 58 -53 69 -78 44 -22 -22 -39 -111 -19 -99 6 4 8 3 5 -2 -8
-14 74 -15 90 -2 9 7 13 7 13 -1 0 -6 -7 -14 -15 -17 -8 -4 -15 -17 -15 -29 0
-13 -13 -36 -30 -52 -33 -31 -37 -43 -16 -43 18 0 83 73 100 113 48 112 65
155 69 177 4 22 4 21 6 -6 2 -56 -67 -200 -127 -266 -30 -33 -23 -48 20 -38
24 5 44 1 71 -12 21 -11 48 -18 60 -17 12 2 33 -4 47 -13 34 -22 135 -41 180
-34 28 4 44 1 61 -13 34 -26 99 -57 137 -66 18 -3 90 -1 160 5 111 10 137 9
202 -6 41 -9 102 -16 135 -15 33 1 90 -6 127 -15 54 -14 72 -15 93 -6 14 7 41
12 60 12 18 0 40 3 49 6 24 9 19 33 -6 38 -65 14 -221 29 -363 36 l-160 7 120
1 c67 1 175 -5 240 -13 66 -8 140 -14 165 -14 l45 1 -55 9 c-30 5 -93 14 -139
21 -53 8 -86 18 -89 26 -3 11 4 13 34 8 22 -4 57 -9 78 -13 28 -4 37 -3 32 5
-7 12 137 5 184 -9 l25 -7 -25 -2 -25 -1 25 -11 c48 -20 153 -26 183 -11 15 7
27 18 27 23 0 14 27 13 32 -1 6 -18 139 -18 172 0 22 12 30 13 33 4 3 -7 11
-13 20 -13 8 0 23 -10 32 -22 16 -20 21 -20 49 -9 33 14 30 4 63 178 6 29 7
58 2 65 -4 7 -8 19 -9 26 -2 11 1 11 19 0 48 -29 60 -19 73 57 18 108 32 153
79 251 91 190 220 257 356 186 123 -64 171 -215 160 -497 -2 -50 -5 -63 -11
-45 -4 14 -5 57 -2 96 4 68 -15 198 -40 271 -10 28 -14 30 -32 22 -20 -10 -20
-10 -2 5 17 13 17 19 6 46 -28 67 -123 119 -194 106 -81 -15 -180 -128 -217
-245 -29 -95 -51 -242 -42 -284 8 -34 9 -35 29 -19 11 10 25 26 32 37 9 16 11
-3 9 -90 -2 -109 -2 -112 35 -185 53 -109 111 -135 198 -90 62 32 84 75 72
144 -1 4 -12 6 -25 4 -23 -4 -23 -4 -11 31 7 20 13 48 14 63 0 15 5 30 11 34
8 5 10 -3 7 -25 -2 -17 -1 -31 4 -31 4 0 8 4 8 8 0 5 7 17 15 28 14 17 14 15
0 -20 -19 -48 -19 -76 -1 -110 l13 -26 17 25 c9 14 28 58 42 97 28 78 51 115
38 63 -30 -127 -112 -248 -218 -319 -64 -43 -117 -33 -191 35 -49 45 -56 42
-25 -9 41 -66 120 -89 197 -57 20 8 68 48 107 88 42 43 61 58 47 37 -31 -45
-123 -133 -156 -148 -50 -23 -109 -15 -161 21 -56 38 -86 78 -109 145 -31 88
-26 82 -61 63 l-32 -17 17 -35 c14 -30 71 -96 71 -83 0 5 24 -14 43 -34 37
-40 37 -40 26 -66 -10 -21 -9 -34 4 -67 15 -38 15 -43 -1 -64 -10 -14 -32 -26
-56 -29 -37 -6 -38 -7 -21 -26 17 -19 17 -20 -6 -28 -13 -5 -53 -12 -89 -16
-75 -8 -130 9 -162 50 -17 21 -27 24 -91 24 -50 1 -84 7 -112 20 -52 25 -102
25 -156 0 -54 -24 -127 -25 -245 -4 -49 9 -103 18 -120 20 -17 2 -57 12 -87
23 -46 16 -85 20 -214 21 -87 0 -189 5 -228 10 -38 5 -76 9 -82 10 -7 0 -13 6
-13 13 0 16 -26 40 -95 87 -58 40 -54 40 -290 15 -93 -10 -206 -18 -250 -18
-72 -1 -87 3 -155 36 -41 20 -86 47 -100 60 -44 41 -112 52 -185 30 l-30 -10
37 -7 c21 -4 40 -10 42 -15 10 -16 -113 -11 -197 8 -48 10 -88 16 -91 13 -9
-8 -66 20 -60 29 3 5 23 9 45 9 21 0 39 4 39 9 0 15 -56 39 -108 47 -26 4 -92
24 -147 44 -109 41 -251 65 -450 75 -60 3 -125 8 -142 11 l-33 5 0 -150 0
-149 48 -10 c26 -6 98 -13 161 -17 63 -3 119 -9 125 -14 6 -5 31 -12 56 -16
25 -4 88 -17 141 -30 52 -13 138 -28 190 -35 52 -6 114 -16 139 -22 25 -6 162
-12 305 -14 143 -1 292 -5 330 -9 39 -3 97 -8 129 -10 33 -2 78 -7 101 -11 27
-4 45 -2 49 5 4 6 13 11 19 11 7 0 6 -4 -3 -10 -12 -7 -10 -9 7 -7 12 0 19 5
17 9 -3 4 7 8 23 9 15 0 66 2 112 4 63 3 117 -3 205 -21 79 -16 185 -28 306
-35 135 -7 222 -18 320 -39 192 -41 292 -54 372 -46 45 4 107 1 176 -10 241
-36 315 -45 487 -54 99 -5 259 -14 355 -20 96 -6 263 -15 370 -20 107 -6 294
-22 415 -35 339 -39 554 -56 740 -60 94 -2 242 -10 330 -19 200 -20 217 -20
396 -11 150 8 205 3 193 -17 -5 -8 23 -9 102 -5 118 7 154 14 154 29 0 12 462
3 680 -12 246 -17 610 -17 610 0 0 5 -17 17 -37 27 -21 9 -41 21 -45 27 -4 6
-16 6 -33 -2 -36 -17 -47 -15 -40 7 4 13 0 20 -16 24 -16 4 -19 11 -14 26 4
13 2 21 -5 21 -6 0 -26 11 -44 25 -18 14 -42 25 -52 25 -11 0 -25 5 -31 11
-15 15 -92 29 -99 18 -7 -12 -61 -12 -68 0 -7 10 63 41 97 42 14 1 6 6 -22 15
-80 25 -76 35 19 50 24 3 58 17 75 29 54 39 85 46 199 42 95 -3 109 -2 119 14
9 14 14 15 25 7 11 -10 20 -5 43 21 16 19 29 43 29 54 0 11 5 37 11 57 8 27 9
47 1 69 -9 26 -8 31 8 36 10 3 21 16 24 29 4 18 17 26 53 36 60 16 73 26 70
53 -2 17 5 22 43 29 84 14 88 16 104 60 19 50 46 189 46 233 0 17 -8 46 -19
65 l-18 35 -104 11 c-57 6 -183 14 -279 18 -96 4 -236 14 -310 22 -74 8 -184
19 -245 25 -136 12 -401 51 -300 43 39 -2 128 -11 199 -18 91 -10 136 -11 152
-4 37 17 348 -8 581 -47 l32 -6 -14 29 c-13 24 -13 46 -3 134 14 129 7 161
-57 238 -67 81 -60 115 25 119 110 5 255 31 269 49 21 27 41 79 41 105 0 36
-21 48 -98 57 -37 5 -81 14 -96 20 -35 13 -342 62 -521 84 -347 41 -497 58
-689 76 -214 20 -265 32 -341 79 -22 13 -46 24 -52 24 -7 0 -13 5 -13 10 0 6
-3 8 -6 4 -3 -3 -46 15 -95 40 -49 25 -87 48 -85 50 2 3 23 -5 46 -17 23 -12
44 -19 46 -17 5 5 -62 47 -74 47 -4 0 -21 13 -38 29 -35 33 -57 40 -233 76
-67 14 -128 28 -134 32 -6 3 -34 8 -61 10 -28 1 -64 7 -81 13 -28 9 -27 9 10
5 22 -3 54 -8 70 -12 17 -3 28 -3 25 0 -3 4 -44 14 -90 23 -47 9 -128 29 -180
44 -52 15 -126 33 -165 40 -38 6 -112 20 -162 31 -51 10 -103 19 -115 18 -13
0 29 -11 92 -24 210 -44 265 -58 254 -62 -6 -2 -62 7 -123 21 -176 40 -409 77
-571 90 -36 3 -137 13 -225 21 -133 13 -210 15 -210 5 0 -1 -15 -3 -34 -5 -45
-4 -65 -26 -57 -61 5 -19 87 -107 239 -257 171 -169 215 -216 167 -181 -36 26
-94 74 -129 108 -35 34 -61 56 -57 49 3 -6 2 -14 -4 -18 -6 -4 -8 -10 -5 -15
3 -5 1 -11 -4 -14 -13 -8 -163 193 -180 241 -8 21 -24 53 -37 72 -17 25 -21
39 -14 52 6 10 10 20 10 22 0 10 -56 14 -73 5 -14 -7 -28 -3 -60 18 -38 25
-54 29 -157 35 -118 8 -200 8 -280 2z m280 -46 c51 -17 65 -26 65 -42 1 -11 6
-19 12 -18 6 1 19 -8 30 -20 29 -31 60 -83 46 -74 -17 11 -16 2 3 -31 15 -25
15 -26 0 -7 -59 71 -111 141 -111 150 0 6 -34 22 -75 37 -41 15 -66 27 -55 27
11 0 49 -10 85 -22z m-805 -37 c-11 -5 -31 -8 -45 -8 l-25 0 25 8 c14 4 34 8
45 8 l20 1 -20 -9z m1481 -15 c330 -25 606 -69 944 -151 250 -61 300 -81 475
-184 83 -49 164 -94 180 -99 l30 -11 -25 18 c-13 9 -51 41 -83 70 -33 28 -65
52 -71 52 -7 0 -21 7 -32 15 -17 13 -15 13 22 1 23 -8 56 -22 74 -31 19 -10
29 -12 25 -5 -13 21 33 2 200 -82 88 -44 171 -85 185 -89 17 -6 8 -7 -30 -4
-30 2 -182 12 -337 21 l-281 17 -47 -41 c-53 -46 -69 -49 -185 -32 -36 5 -135
12 -221 15 -165 6 -175 7 -279 24 -36 6 -68 11 -72 11 -4 0 -13 6 -20 14 -8 8
-46 30 -84 50 -61 32 -84 39 -141 45 -7 0 -27 14 -45 30 -18 15 -91 67 -161
115 -71 48 -157 108 -191 134 -34 26 -72 54 -85 62 -22 15 -23 17 -7 33 21 20
22 20 262 2z m-912 -84 c3 -5 -1 -11 -9 -15 -9 -3 -15 0 -15 9 0 16 16 20 24
6z m1803 -17 c-3 -3 -12 -4 -19 -1 -8 3 -5 6 6 6 11 1 17 -2 13 -5z m-2368
-69 c-18 -25 -39 -51 -48 -59 -21 -18 -86 -33 -77 -17 4 6 11 9 16 6 4 -3 13
2 20 10 7 8 9 15 5 15 -5 0 0 9 9 19 17 19 17 20 -6 23 -18 3 -12 8 32 25 80
32 86 29 49 -22z m362 -18 c-10 -9 -11 -8 -5 6 3 10 9 15 12 12 3 -3 0 -11 -7
-18z m694 -53 c9 -15 12 -23 6 -20 -11 7 -35 46 -28 46 3 0 12 -12 22 -26z
m-15 -27 c0 -4 -10 -3 -21 4 -17 9 -19 13 -8 20 13 8 28 -5 29 -24z m1787 17
c-3 -3 -12 -4 -19 -1 -8 3 -5 6 6 6 11 1 17 -2 13 -5z m-1997 -8 c0 -3 -40
-29 -89 -60 -78 -48 -257 -123 -268 -112 -2 2 30 16 72 31 42 15 108 48 148
73 40 24 86 51 102 58 35 15 35 15 35 10z m-335 -66 c-3 -5 -11 -10 -16 -10
-6 0 -7 5 -4 10 3 6 11 10 16 10 6 0 7 -4 4 -10z m-700 -129 c-13 -12 -113 33
-121 54 -4 9 1 24 10 34 15 16 19 15 68 -31 32 -30 48 -51 43 -57z m-768 -13
c-2 -13 -4 -5 -4 17 -1 22 1 32 4 23 2 -10 2 -28 0 -40z m53 -19 c0 -10 -4
-19 -9 -19 -12 0 -23 29 -15 41 8 14 24 0 24 -22z m2822 0 c25 -7 36 -14 26
-16 -9 -2 -36 5 -60 17 -24 11 -35 18 -26 16 9 -3 36 -10 60 -17z m-2363 -15
c-8 -9 -15 -12 -17 -6 -2 6 -10 8 -19 5 -11 -4 -14 -2 -9 5 4 7 19 12 33 12
22 0 24 -2 12 -16z m503 -6 c30 -16 38 -24 26 -26 -10 -2 -18 -8 -18 -14 0 -5
-15 -8 -36 -5 -41 6 -49 11 -39 27 5 8 13 6 26 -6 18 -16 19 -16 19 4 0 12 -8
26 -17 31 -34 20 -3 11 39 -11z m2098 -62 c363 -1 437 -3 427 -14 -16 -19 -67
-44 -80 -39 -7 2 -68 1 -137 -3 -81 -4 -130 -3 -138 3 -9 8 -16 7 -20 0 -5 -7
-24 -8 -62 -2 -30 5 -133 8 -228 7 -143 -1 -175 2 -185 14 -6 8 -38 30 -69 47
-77 43 -81 54 -6 17 l60 -30 438 0z m-1290 -54 c0 -10 -329 -36 -380 -30 -19
2 15 7 75 11 104 8 281 23 298 26 4 0 7 -3 7 -7z m1455 -30 c77 -6 148 -13
157 -17 22 -9 14 -27 -23 -49 -27 -16 -40 -16 -187 -4 -235 19 -773 16 -1007
-6 -104 -9 -203 -19 -220 -21 -16 -2 -142 -8 -280 -14 -393 -17 -447 -20 -491
-27 -38 -6 -42 -4 -48 19 -15 61 -24 59 405 77 141 5 362 19 490 30 129 11
261 21 294 24 105 6 765 -3 910 -12z m-2198 -38 c-3 -3 -12 -4 -19 -1 -8 3 -5
6 6 6 11 1 17 -2 13 -5z m-87 -14 c-57 -8 -404 -21 -360 -13 38 6 277 20 350
20 l65 1 -55 -8z m150 -55 c-9 -11 -42 -14 -144 -14 -72 0 -194 -5 -271 -12
-77 -8 -167 -12 -200 -9 -92 6 -181 5 -276 -4 -66 -7 -88 -6 -94 4 -4 7 -2 16
5 20 22 14 187 33 224 26 34 -7 539 17 691 32 63 6 70 5 73 -11 2 -10 -2 -24
-8 -32z m-845 -65 c-3 -5 -11 -10 -16 -10 -6 0 -7 5 -4 10 3 6 11 10 16 10 6
0 7 -4 4 -10z m385 1 c0 -5 -7 -11 -15 -15 -15 -5 -20 5 -8 17 9 10 23 9 23
-2z m1250 -1 c0 -5 -15 -10 -32 -9 -31 1 -32 1 -8 9 35 11 40 11 40 0z m303 3
c-34 -6 -28 -16 22 -37 47 -19 138 -94 156 -128 9 -16 8 -19 -2 -12 -8 4 -21
9 -30 9 -9 1 -36 15 -60 31 -53 36 -81 51 -56 31 28 -23 20 -25 -35 -10 -65
18 -348 20 -358 3 -4 -6 -18 -8 -32 -5 -35 9 -198 -41 -198 -61 0 -12 -10 -14
-49 -9 -61 7 -89 -4 -143 -53 -42 -39 -94 -72 -86 -55 34 69 48 85 102 121 80
53 125 75 221 106 101 34 242 56 365 57 52 1 109 5 125 9 17 4 41 8 55 7 23 0
23 0 3 -4z m-1613 -28 c-13 -14 -28 -25 -34 -25 -6 -1 -23 -20 -38 -44 -22
-34 -37 -46 -68 -54 -32 -8 -40 -7 -40 4 0 19 119 113 153 120 15 4 30 11 33
15 3 5 8 9 11 9 4 0 -4 -11 -17 -25z m413 8 c-13 -2 -33 -2 -45 0 -13 2 -3 4
22 4 25 0 35 -2 23 -4z m2573 -47 c18 -14 18 -16 2 -32 -14 -15 -20 -15 -33
-4 -9 7 -21 22 -26 32 -8 15 -6 18 14 18 13 0 32 -6 43 -14z m-3326 -57 c-7
-11 -14 -18 -17 -15 -8 8 5 36 17 36 7 0 7 -6 0 -21z m1860 1 c12 -8 11 -10
-7 -10 -12 0 -25 5 -28 10 -8 13 15 13 35 0z m1830 -25 c0 -25 -23 -35 -35
-15 -10 16 2 40 20 40 9 0 15 -9 15 -25z m-180 11 c0 -2 -7 -7 -16 -10 -8 -3
-12 -2 -9 4 6 10 25 14 25 6z m-3095 -15 c-3 -5 -54 -28 -113 -51 -59 -23
-137 -59 -174 -81 -68 -40 -85 -56 -48 -44 11 3 24 4 29 0 13 -7 2 -36 -13
-33 -6 1 -30 -2 -54 -6 -24 -4 -63 -5 -88 -1 -40 6 -43 8 -31 26 6 11 19 18
27 17 18 -3 45 15 100 65 48 46 88 61 226 91 122 27 148 30 139 17z m3445 -37
c0 -8 -5 -12 -10 -9 -6 4 -8 11 -5 16 9 14 15 11 15 -7z m-5125 -24 c4 -6 -12
-10 -40 -10 -28 0 -44 4 -40 10 3 6 21 10 40 10 19 0 37 -4 40 -10z m4790 0
c-3 -5 -12 -10 -18 -10 -7 0 -6 4 3 10 19 12 23 12 15 0z m-2285 -30 c11 -7 7
-10 -17 -10 -18 0 -33 5 -33 10 0 13 30 13 50 0z m4075 -20 c3 -5 -1 -10 -9
-10 -9 0 -16 5 -16 10 0 6 4 10 9 10 6 0 13 -4 16 -10z m115 -22 c0 -15 -18
-17 -36 -3 -18 14 -17 14 9 13 15 -1 27 -6 27 -10z m-5067 -21 c-93 -75 -133
-94 -133 -64 0 22 33 46 91 66 72 25 75 25 42 -2z m-1587 -6 c82 -37 140 -145
149 -274 l5 -72 -14 78 c-20 110 -56 178 -113 216 -62 41 -122 45 -180 11 -25
-15 -35 -16 -48 -6 -16 11 -16 13 1 27 10 7 15 9 11 3 -4 -7 0 -14 7 -17 10
-4 13 0 11 14 -8 40 99 53 171 20z m4354 3 c0 -2 -16 -4 -35 -4 -19 0 -35 4
-35 8 0 4 16 6 35 4 19 -2 35 -6 35 -8z m1950 -9 c-7 -9 -15 -13 -18 -10 -3 2
1 11 8 20 7 9 15 13 18 10 3 -2 -1 -11 -8 -20z m-1683 -1 c-3 -3 -12 -4 -19
-1 -8 3 -5 6 6 6 11 1 17 -2 13 -5z m1080 -20 c147 -21 207 -46 239 -95 13
-22 29 -37 34 -34 6 3 10 -1 10 -11 0 -14 -8 -16 -57 -10 -32 3 -125 9 -208
13 -112 6 -136 9 -95 13 51 5 49 6 -45 13 -55 5 -104 10 -110 11 -6 2 -8 26
-7 54 3 43 7 52 25 55 47 9 114 6 214 -9z m-3437 -14 c0 -11 -7 -20 -15 -20
-13 0 -14 4 -5 20 6 11 13 20 15 20 3 0 5 -9 5 -20z m4270 16 c0 -3 -4 -8 -10
-11 -5 -3 -10 -1 -10 4 0 6 5 11 10 11 6 0 10 -2 10 -4z m-180 -29 c0 -29 -34
-62 -55 -54 -23 10 -18 36 10 49 14 6 25 15 25 20 0 4 5 8 10 8 6 0 10 -11 10
-23z m-5257 6 c-7 -2 -19 -2 -25 0 -7 3 -2 5 12 5 14 0 19 -2 13 -5z m1532
-13 c23 -11 52 -35 65 -52 l24 -33 -41 33 c-60 47 -109 65 -161 58 -27 -4 -41
-2 -37 4 11 18 106 11 150 -10z m-2856 -42 c-23 -32 -35 -37 -19 -8 6 11 8 20
5 20 -4 0 -4 4 -1 8 3 5 12 9 20 9 12 0 11 -6 -5 -29z m239 16 c24 -16 57 -77
67 -123 4 -19 1 -32 -10 -41 -13 -11 -15 -9 -15 12 0 48 -30 127 -57 147 -30
24 -18 28 15 5z m2239 10 c-3 -3 -12 -4 -19 -1 -8 3 -5 6 6 6 11 1 17 -2 13
-5z m-2009 -69 c0 -16 -2 -15 -8 5 -4 14 -8 34 -8 45 0 16 2 15 8 -5 4 -14 8
-34 8 -45z m1012 55 c52 -3 83 -7 68 -8 -16 -1 -28 -6 -28 -11 0 -5 -26 -9
-57 -9 -32 0 -89 -5 -128 -11 -38 -7 -100 -9 -136 -6 -36 3 -125 6 -197 6
-124 -1 -132 1 -132 19 0 18 9 20 98 23 183 6 417 5 512 -3z m-920 -33 c0 -5
-4 -5 -10 -2 -5 3 -10 14 -10 23 0 15 2 15 10 2 5 -8 10 -19 10 -23z m300 13
c0 -19 -7 -20 -135 -20 -110 0 -135 3 -135 14 0 22 15 24 148 25 116 1 122 0
122 -19z m830 11 c0 -5 10 -7 23 -5 l22 5 -22 -12 c-24 -13 -58 -5 -48 11 8
12 25 13 25 1z m117 -7 c-3 -3 -12 -4 -19 -1 -8 3 -5 6 6 6 11 1 17 -2 13 -5z
m2801 -21 c-10 -2 -26 -2 -35 0 -10 3 -2 5 17 5 19 0 27 -2 18 -5z m334 -17
c86 -6 160 -14 163 -17 7 -7 -309 -1 -355 7 -19 3 -41 11 -48 17 -10 8 -19 7
-35 -3 -20 -12 -21 -12 -8 4 13 15 24 17 70 11 31 -4 127 -12 213 -19z m-4942
-26 c-6 -11 -13 -20 -16 -20 -2 0 0 9 6 20 6 11 13 20 16 20 2 0 0 -9 -6 -20z
m477 -22 c-3 -8 -6 -5 -6 6 -1 11 2 17 5 13 3 -3 4 -12 1 -19z m5268 -9 c55
-6 125 -15 155 -20 45 -6 39 -7 -35 -4 -202 10 -430 28 -454 36 -33 11 199 3
334 -12z m-5676 -15 c14 -12 -19 -1 -35 12 -18 14 -18 14 6 3 14 -6 27 -13 29
-15z m418 -16 c-3 -8 -6 -5 -6 6 -1 11 2 17 5 13 3 -3 4 -12 1 -19z m-312 2
c-3 -5 -16 -10 -28 -9 -21 0 -21 1 -2 9 28 12 37 12 30 0z m2025 -39 c0 -13
-10 -20 -32 -25 -44 -9 -46 -1 -7 23 41 25 39 25 39 2z m3667 13 c-3 -3 -12
-4 -19 -1 -8 3 -5 6 6 6 11 1 17 -2 13 -5z m-3752 -14 c3 -5 -1 -10 -9 -10 -9
0 -16 -5 -16 -12 0 -6 -3 -9 -6 -5 -9 8 3 37 15 37 5 0 13 -4 16 -10z m3942 4
c-3 -3 -12 -4 -19 -1 -8 3 -5 6 6 6 11 1 17 -2 13 -5z m-3215 -23 c36 5 42 -2
18 -20 l-24 -19 21 -63 c15 -42 19 -67 12 -75 -7 -8 -3 -13 12 -17 19 -5 21
-3 15 25 -10 49 4 26 20 -33 18 -69 18 -108 -1 -152 -19 -46 -40 -57 -112 -57
-40 0 -68 -6 -91 -20 -41 -25 -42 -25 -42 4 0 28 12 39 64 57 l39 14 -6 72
c-5 69 -4 73 15 73 52 0 75 74 47 147 -6 15 -15 41 -20 56 -7 24 -6 27 6 17 7
-6 19 -10 27 -9z m3281 12 c-7 -2 -21 -2 -30 0 -10 3 -4 5 12 5 17 0 24 -2 18
-5z m-5776 -64 c3 -33 1 -34 -31 -34 -19 0 -32 3 -29 8 2 4 11 7 19 7 8 0 14
7 14 15 0 9 -6 12 -15 9 -8 -4 -15 -2 -15 4 0 54 53 45 57 -9z m6216 15 c20
-3 37 -10 37 -15 0 -4 -7 -6 -16 -2 -8 3 -52 7 -97 8 -45 1 -98 7 -117 13 -29
9 -20 10 60 6 52 -3 112 -7 133 -10z m-4376 0 c-3 -3 -12 -4 -19 -1 -8 3 -5 6
6 6 11 1 17 -2 13 -5z m869 -40 c8 -53 -2 -203 -17 -277 -15 -67 -21 -54 -8
19 5 34 7 111 3 182 -4 83 -3 122 4 122 6 0 14 -21 18 -46z m3912 5 c2 -5 8
-9 13 -9 6 0 7 6 3 13 -5 8 -2 8 9 -2 9 -7 17 -15 17 -17 0 -2 -26 -4 -57 -3
-42 0 -52 3 -38 9 15 6 8 9 -30 10 -27 2 -63 6 -80 10 -18 5 9 6 65 3 52 -3
97 -10 98 -14z m-5145 4 c-7 -2 -19 -2 -25 0 -7 3 -2 5 12 5 14 0 19 -2 13 -5z
m-368 -18 c177 -6 281 -11 460 -22 66 -4 150 -6 188 -4 47 2 67 0 67 -9 0 -12
-3 -12 -775 5 -371 9 -505 19 -505 37 0 9 84 8 565 -7z m5618 -2 c-7 -2 -21
-2 -30 0 -10 3 -4 5 12 5 17 0 24 -2 18 -5z m-6224 -28 c-3 -2 -59 -7 -124
-10 -90 -4 -124 -10 -137 -22 -10 -9 -18 -13 -18 -8 0 4 10 16 22 26 18 16 38
19 141 19 66 0 118 -2 116 -5z m1426 -5 c-3 -5 -19 -10 -36 -10 -16 0 -29 5
-29 10 0 6 16 10 36 10 21 0 33 -4 29 -10z m30 0 c3 -5 1 -10 -4 -10 -6 0 -11
5 -11 10 0 6 2 10 4 10 3 0 8 -4 11 -10z m256 -17 c-12 -20 -14 -14 -5 12 4 9
9 14 11 11 3 -2 0 -13 -6 -23z m-2484 -23 c4 -12 3 -12 -5 -1 -7 10 -14 11
-31 2 -17 -10 -21 -9 -21 4 0 21 52 16 57 -5z m550 4 c-3 -3 -12 -4 -19 -1 -8
3 -5 6 6 6 11 1 17 -2 13 -5z m191 -33 c30 -1 42 -5 42 -16 0 -11 -12 -15 -42
-17 -41 -1 -41 -1 -8 -5 65 -8 52 -20 -17 -16 -37 3 -108 0 -158 -5 -49 -6
-91 -9 -93 -8 -8 9 13 36 27 36 23 0 33 11 22 24 -9 10 69 13 227 7z m1709
-103 c-3 -8 -6 -5 -6 6 -1 11 2 17 5 13 3 -3 4 -12 1 -19z m2083 -7 c0 -5 -8
-12 -17 -15 -28 -7 -188 -18 -182 -12 5 5 149 32 187 35 6 1 12 -3 12 -8z
m-3120 -55 c0 -2 3 -11 6 -19 8 -23 -31 -28 -44 -6 -17 26 -15 29 13 29 14 0
25 -2 25 -4z m1490 -133 c-11 -17 -11 -17 -6 0 3 10 7 31 7 45 l2 27 4 -27 c2
-15 -1 -35 -7 -45z m-3940 -97 c0 -3 -4 -8 -10 -11 -5 -3 -10 -1 -10 4 0 6 5
11 10 11 6 0 10 -2 10 -4z m3781 -16 c30 -17 22 -29 -10 -17 -25 9 -33 8 -50
-8 -23 -20 -27 -14 -11 16 12 21 41 25 71 9z m769 -149 c0 -5 -7 -12 -16 -15
-14 -5 -15 -4 -4 9 14 17 20 19 20 6z m-990 -175 c0 -3 -4 -8 -10 -11 -5 -3
-10 -1 -10 4 0 6 5 11 10 11 6 0 10 -2 10 -4z m49 -26 c-27 -18 -47 -26 -53
-20 -12 12 -11 13 39 33 59 24 63 20 14 -13z m2278 -286 c-3 -3 -12 -4 -19 -1
-8 3 -5 6 6 6 11 1 17 -2 13 -5z"/>
<path d="M4357 6492 c19 -36 43 -61 43 -45 0 5 -14 24 -31 43 l-30 35 18 -33z"/>
<path d="M4786 6491 c-3 -4 5 -13 18 -19 19 -8 25 -8 30 3 7 19 -37 35 -48 16z"/>
<path d="M5000 6343 c1 -16 25 -40 37 -36 8 3 7 10 -5 24 -17 19 -32 25 -32
12z"/>
<path d="M6530 6164 c0 -2 19 -13 43 -24 41 -20 41 -20 17 -1 -23 19 -60 34
-60 25z"/>
<path d="M6620 6116 c0 -2 9 -6 20 -9 11 -3 18 -1 14 4 -5 9 -34 13 -34 5z"/>
<path d="M4601 5686 c6 -7 119 -43 119 -39 0 8 -85 43 -104 43 -11 0 -17 -2
-15 -4z"/>
<path d="M4545 5650 c-18 -8 -18 -9 5 -9 14 0 34 4 45 9 18 8 18 9 -5 9 -14 0
-34 -4 -45 -9z"/>
<path d="M1390 5390 c12 -8 12 -10 1 -10 -8 0 -12 -2 -9 -5 3 -3 13 -2 22 1
14 5 15 9 4 15 -7 5 -17 9 -23 9 -5 0 -3 -5 5 -10z"/>
<path d="M4150 4880 c-21 -21 -20 -54 2 -112 12 -32 28 -35 51 -10 46 51 41
142 -9 142 -13 0 -33 -9 -44 -20z"/>
<path d="M1926 4895 c-4 -11 1 -15 19 -15 28 0 33 15 9 24 -21 8 -21 8 -28 -9z"/>
<path d="M9716 6597 c3 -10 9 -15 12 -12 3 3 0 11 -7 18 -10 9 -11 8 -5 -6z"/>
<path d="M5038 6573 c7 -3 16 -2 19 1 4 3 -2 6 -13 5 -11 0 -14 -3 -6 -6z"/>
<path d="M9748 6564 c13 -25 42 -50 42 -37 0 5 -12 20 -26 34 -24 21 -26 22
-16 3z"/>
<path d="M8659 6523 l-24 -28 28 24 c15 14 27 26 27 28 0 8 -8 1 -31 -24z"/>
<path d="M5373 6533 c9 -2 23 -2 30 0 6 3 -1 5 -18 5 -16 0 -22 -2 -12 -5z"/>
<path d="M139 6502 c14 -11 38 -27 55 -37 l31 -17 -25 21 c-14 12 -38 29 -55
37 l-30 15 24 -19z"/>
<path d="M9241 6438 c0 -9 -8 -18 -16 -20 -10 -2 -12 -7 -5 -18 13 -21 33 1
27 31 -2 13 -5 16 -6 7z"/>
<path d="M8631 6407 c-6 -8 -8 -17 -4 -20 11 -12 19 -7 20 13 2 24 -1 25 -16
7z"/>
<path d="M7155 6400 c-3 -5 3 -10 14 -10 11 0 23 -4 26 -10 12 -20 26 -10 15
10 -11 21 -44 27 -55 10z"/>
<path d="M2153 6393 c9 -2 23 -2 30 0 6 3 -1 5 -18 5 -16 0 -22 -2 -12 -5z"/>
<path d="M8495 6390 c-3 -6 1 -7 9 -4 18 7 21 14 7 14 -6 0 -13 -4 -16 -10z"/>
<path d="M7110 6380 c-8 -5 -10 -10 -5 -10 6 0 17 5 25 10 8 5 11 10 5 10 -5
0 -17 -5 -25 -10z"/>
<path d="M7060 6360 c-9 -6 -10 -10 -3 -10 6 0 15 5 18 10 8 12 4 12 -15 0z"/>
<path d="M7000 6335 c-14 -8 -20 -14 -15 -14 6 0 21 6 35 14 14 8 21 14 15 14
-5 0 -21 -6 -35 -14z"/>
<path d="M9200 6305 c-10 -12 -10 -15 4 -15 9 0 16 7 16 15 0 8 -2 15 -4 15
-2 0 -9 -7 -16 -15z"/>
<path d="M7938 6253 c7 -3 16 -2 19 1 4 3 -2 6 -13 5 -11 0 -14 -3 -6 -6z"/>
<path d="M7256 6235 c-3 -8 -2 -15 3 -15 5 0 14 7 21 15 10 12 10 15 -3 15 -8
0 -17 -7 -21 -15z"/>
<path d="M2849 6203 c-13 -16 -12 -17 4 -4 16 13 21 21 13 21 -2 0 -10 -8 -17
-17z"/>
<path d="M8286 6155 c-11 -8 -15 -15 -9 -15 6 0 16 7 23 15 16 19 11 19 -14 0z"/>
<path d="M9747 6097 c-15 -12 -27 -29 -27 -37 0 -9 12 -3 32 17 38 38 33 54
-5 20z"/>
<path d="M9931 5963 c-45 -22 -51 -28 -35 -33 10 -4 29 -3 42 1 12 5 26 8 30
8 22 -4 42 3 63 22 25 21 21 22 -31 1 -13 -5 -13 -3 -1 11 20 25 -3 22 -68
-10z"/>
<path d="M9830 5895 c-25 -7 -56 -18 -70 -24 -21 -10 -17 -10 25 -6 28 4 61 7
75 9 14 2 31 4 38 4 19 3 14 32 -5 31 -10 -1 -38 -7 -63 -14z"/>
<path d="M9790 5844 c-30 -14 -71 -32 -90 -40 l-35 -14 55 5 c102 11 123 14
128 20 3 3 -6 5 -19 5 -24 1 -24 1 6 25 39 32 24 31 -45 -1z"/>
<path d="M9960 5860 c0 -5 5 -10 10 -10 6 0 10 5 10 10 0 6 -4 10 -10 10 -5 0
-10 -4 -10 -10z"/>
<path d="M9920 5840 c-13 -8 -13 -10 2 -10 9 0 20 5 23 10 8 13 -5 13 -25 0z"/>
<path d="M9680 5830 c-8 -5 -22 -7 -32 -4 -20 6 -35 -14 -16 -21 7 -3 31 4 53
15 21 11 33 20 25 20 -8 0 -22 -5 -30 -10z"/>
<path d="M9621 5768 c-5 -13 -7 -25 -5 -27 7 -7 34 21 34 35 0 22 -20 16 -29
-8z"/>
<path d="M9420 5770 c0 -12 47 -13 53 -2 3 4 -8 8 -24 9 -16 1 -29 -2 -29 -7z"/>
<path d="M9500 5747 c0 -15 6 -17 38 -11 57 10 74 23 30 24 -20 0 -39 -6 -41
-12 -4 -10 -8 -9 -16 2 -9 13 -11 12 -11 -3z"/>
<path d="M2268 5679 c-34 -17 -50 -39 -30 -39 9 0 82 49 82 55 0 9 -15 4 -52
-16z"/>
<path d="M2163 5638 c-23 -30 -24 -38 -5 -38 10 0 24 11 30 25 9 20 9 25 -2
25 -7 0 -18 -6 -23 -12z"/>
<path d="M9819 5583 c-13 -16 -12 -17 4 -4 16 13 21 21 13 21 -2 0 -10 -8 -17
-17z"/>
<path d="M9759 5533 l-24 -28 28 24 c25 23 32 31 24 31 -2 0 -14 -12 -28 -27z"/>
<path d="M10172 5393 c-7 -2 -17 -14 -23 -26 -11 -21 -10 -20 15 2 14 14 26
26 26 28 0 3 0 3 -18 -4z"/>
<path d="M3761 4954 c0 -11 3 -14 6 -6 3 7 2 16 -1 19 -3 4 -6 -2 -5 -13z"/>
<path d="M3680 4742 c0 -12 3 -12 15 -2 8 7 15 13 15 15 0 1 -7 2 -15 2 -8 0
-15 -7 -15 -15z"/>
<path d="M3703 4667 c-13 -5 -23 -14 -23 -19 0 -5 5 -6 10 -3 6 3 10 -3 10
-15 0 -17 3 -19 18 -11 10 6 18 19 17 30 -2 28 -6 30 -32 18z"/>
<path d="M0 4202 c0 -10 60 -17 355 -37 230 -16 337 -18 220 -4 -38 4 -158 15
-265 24 -107 8 -221 18 -252 21 -35 3 -58 2 -58 -4z"/>
<path d="M673 4143 c9 -2 23 -2 30 0 6 3 -1 5 -18 5 -16 0 -22 -2 -12 -5z"/>
<path d="M8819 3938 c-10 -18 -8 -24 6 -34 10 -8 22 -11 27 -8 5 3 1 12 -8 19
-10 7 -15 19 -11 29 9 23 0 20 -14 -6z"/>
<path d="M8160 3940 c-20 -12 -10 -19 14 -10 11 3 15 9 10 13 -6 3 -16 2 -24
-3z"/>
<path d="M9952 3918 c-13 -16 -5 -63 13 -78 10 -8 19 -8 34 2 17 10 25 10 41
1 26 -17 38 3 14 23 -11 9 -12 12 -4 8 10 -5 9 0 -4 14 -11 12 -29 22 -41 22
-11 0 -26 5 -31 10 -8 8 -14 7 -22 -2z"/>
<path d="M8934 3855 c4 -10 -1 -15 -17 -14 -12 0 -47 -5 -77 -11 -56 -10 -165
-6 -267 11 -29 5 -76 -2 -67 -10 10 -11 242 -29 409 -33 60 -1 132 -5 160 -9
83 -12 179 -17 165 -9 -9 5 -9 9 -1 14 22 14 10 25 -39 35 -31 7 -59 7 -73 2
-15 -6 -39 -6 -63 0 -22 6 -49 12 -60 14 -12 1 -31 8 -42 14 -28 15 -35 14
-28 -4z"/>
<path d="M8128 3833 c7 -3 16 -2 19 1 4 3 -2 6 -13 5 -11 0 -14 -3 -6 -6z"/>
<path d="M1727 3795 c-44 -15 -77 -42 -77 -62 0 -21 23 -15 49 12 29 31 68 42
94 26 27 -17 19 7 -9 25 -15 10 -26 10 -57 -1z"/>
<path d="M4028 3793 c12 -2 30 -2 40 0 9 3 -1 5 -23 4 -22 0 -30 -2 -17 -4z"/>
<path d="M9286 3781 c-32 -12 -5 -20 105 -30 57 -6 150 -19 207 -30 105 -20
352 -39 352 -27 0 14 -59 30 -145 38 -49 5 -110 11 -135 13 -25 3 -83 12 -130
21 -135 25 -145 26 -182 16 -20 -5 -40 -6 -45 -2 -4 4 -17 5 -27 1z"/>
<path d="M10180 3743 c-19 -8 -40 -23 -48 -34 -10 -14 -25 -19 -64 -19 -28 0
-49 -2 -46 -5 6 -7 165 -35 196 -35 15 0 22 6 22 20 0 11 -4 20 -8 20 -5 0
-17 6 -28 14 -19 15 -19 15 1 30 29 21 16 26 -25 9z"/>
<path d="M1605 3690 c16 -27 13 -82 -6 -101 -10 -10 -14 -21 -9 -24 6 -4 10
-1 10 4 0 19 19 12 31 -11 11 -21 11 -22 -4 -9 -10 7 -17 9 -17 3 0 -14 25
-22 71 -22 52 0 52 22 0 87 -39 49 -91 100 -76 73z"/>
<path d="M453 3684 c10 -10 279 -34 372 -33 l90 1 -105 13 c-121 14 -366 27
-357 19z"/>
<path d="M1553 3664 l-28 -26 33 22 c29 20 39 30 28 30 -3 0 -18 -12 -33 -26z"/>
<path d="M5228 3653 c6 -2 18 -2 25 0 6 3 1 5 -13 5 -14 0 -19 -2 -12 -5z"/>
<path d="M5305 3639 c22 -4 56 -8 75 -7 33 0 32 1 -10 9 -25 4 -58 7 -75 7
-26 0 -25 -1 10 -9z"/>
<path d="M3508 3623 c12 -2 30 -2 40 0 9 3 -1 5 -23 4 -22 0 -30 -2 -17 -4z"/>
<path d="M3590 3614 c37 -8 88 -9 84 -2 -3 4 -26 7 -52 7 -26 -1 -40 -3 -32
-5z"/>
<path d="M3720 3599 c135 -31 480 -93 580 -103 52 -6 50 -5 -24 14 -44 11 -82
22 -84 25 -8 8 98 -6 213 -27 61 -11 133 -22 160 -24 87 -8 289 -35 294 -40 2
-2 -16 -4 -40 -5 -76 -1 -16 -15 161 -38 91 -12 176 -24 188 -27 15 -3 21 -1
17 6 -8 13 58 5 125 -15 25 -8 54 -16 65 -19 11 -3 3 -4 -17 -1 -21 2 -38 0
-38 -6 0 -5 6 -9 13 -9 6 0 50 -7 97 -15 47 -9 119 -18 160 -21 41 -3 102 -12
135 -19 158 -36 308 -56 445 -59 l145 -3 -170 28 c-333 54 -650 109 -849 149
-110 22 -273 49 -361 60 -88 11 -270 36 -405 56 -316 45 -788 104 -820 103
-20 -1 -18 -3 10 -10z m1187 -165 c-3 -3 -12 -4 -19 -1 -8 3 -5 6 6 6 11 1 17
-2 13 -5z m1086 -184 l32 -8 -35 0 c-19 -1 -66 5 -105 13 l-70 14 73 -6 c40
-3 87 -9 105 -13z"/>
<path d="M1773 3583 c-9 -3 -10 -10 -3 -23 12 -23 -12 -40 -59 -40 -16 0 -33
-5 -36 -11 -5 -7 7 -8 38 -4 40 6 50 4 81 -20 29 -22 33 -31 27 -48 -5 -12 -6
-28 -4 -34 3 -7 0 -13 -7 -13 -6 0 -8 5 -5 10 11 18 -11 11 -29 -9 -16 -18
-16 -19 0 -17 28 2 28 -28 -1 -62 -17 -21 -31 -28 -45 -25 -24 6 -25 11 -3 37
13 16 11 15 -9 -3 l-27 -24 -58 44 c-32 24 -67 53 -79 66 -13 14 -25 19 -34
13 -18 -11 7 -32 110 -97 76 -47 159 -109 172 -127 14 -21 -2 -16 -53 17 -132
84 -223 114 -258 83 -9 -7 -49 -35 -90 -61 -49 -31 -72 -41 -67 -29 5 13 4 15
-7 6 -8 -7 -17 -9 -20 -5 -4 3 -7 2 -7 -4 0 -6 -12 -22 -26 -37 -15 -14 -30
-40 -33 -58 -7 -30 -4 -35 33 -60 l41 -28 -90 -1 c-96 0 -93 -9 10 -31 69 -14
95 -32 95 -66 0 -54 -20 -67 -102 -67 -40 0 -78 -3 -84 -7 -6 -4 -35 -16 -65
-27 -30 -12 -67 -32 -84 -46 l-30 -26 61 4 c48 2 69 9 105 34 30 21 61 33 98
38 77 9 121 29 121 55 0 11 7 23 15 26 26 10 76 -17 87 -47 9 -25 60 -58 81
-51 5 1 6 -2 3 -7 -6 -9 11 -18 54 -26 18 -3 20 -2 10 10 -10 12 -9 16 6 21
26 8 63 26 42 20 -19 -5 -48 18 -48 37 0 7 17 19 38 27 46 19 127 12 127 -10
0 -9 20 -22 50 -32 69 -23 70 -23 96 18 18 30 24 34 33 22 6 -8 17 -13 25 -10
9 3 11 0 6 -8 -6 -10 -4 -12 8 -7 22 8 28 -4 12 -26 -8 -12 -15 -14 -20 -8 -9
16 -28 13 -22 -3 4 -9 0 -15 -11 -14 -48 1 -234 -12 -267 -18 l-38 -7 34 -14
c21 -9 54 -12 89 -9 75 6 181 -4 173 -17 -4 -6 3 -8 19 -4 14 4 27 4 30 1 3
-3 43 -7 89 -8 46 -2 95 -8 109 -14 59 -25 467 -43 500 -22 13 8 13 10 -2 10
-24 0 -45 35 -58 98 -7 28 -15 52 -19 52 -4 0 -6 25 -3 55 6 76 -4 116 -42
172 -18 26 -44 74 -59 106 -38 83 -108 181 -118 165 -7 -10 -14 -10 -36 4 -16
9 -80 44 -143 78 -63 34 -134 75 -157 90 -37 25 -48 28 -100 23 -45 -4 -69 0
-106 16 -27 12 -49 21 -50 20 -1 0 -8 -3 -14 -6z m207 -80 c0 -10 -42 -53 -51
-53 -5 0 -15 14 -24 30 l-16 30 46 0 c25 0 45 -3 45 -7z m56 -74 c4 -8 9 -7
15 2 7 12 9 12 9 0 0 -7 6 -11 15 -8 8 4 17 2 21 -4 3 -6 12 -8 20 -5 13 5 49
-6 194 -57 73 -26 92 -53 38 -55 -18 0 -55 -2 -83 -2 -30 -1 -71 6 -105 19
-60 24 -161 89 -168 109 -5 15 34 16 44 1z m-19 -64 c27 -24 41 -44 33 -44
-21 0 -131 26 -138 33 -11 12 18 56 37 56 10 0 41 -20 68 -45z m313 -99 c0
-18 -84 -54 -135 -58 -22 -2 -43 -7 -47 -13 -4 -5 -10 -6 -14 -3 -6 7 65 78
79 78 4 0 7 -7 7 -15 0 -8 5 -15 11 -15 5 0 8 4 4 9 -10 16 14 22 37 10 21
-11 22 -11 9 4 -12 15 -10 17 18 17 20 0 31 -5 31 -14z m-885 -58 c14 -6 26
-19 27 -30 0 -10 1 -22 2 -27 2 -17 -76 -71 -102 -71 -21 0 -24 4 -20 25 7 32
-6 32 -44 0 -17 -14 -33 -23 -37 -20 -7 8 122 135 137 135 6 0 23 -5 37 -12z
m562 -59 c6 -6 9 -18 6 -26 -3 -7 3 -23 12 -33 10 -11 16 -20 14 -21 -31 -5
-69 -6 -65 -1 3 3 1 11 -5 19 -9 10 -7 13 6 13 11 0 15 5 11 15 -3 8 -9 22
-12 30 -7 18 17 20 33 4z m-117 -59 c4 -3 10 -17 14 -32 6 -27 -2 -35 -29 -28
-5 1 -37 2 -69 1 -33 0 -66 5 -75 11 -9 7 -13 8 -8 3 8 -10 -62 -37 -75 -29
-5 3 -15 0 -23 -6 -12 -10 -18 -10 -29 -1 -8 7 -27 14 -43 15 -24 3 -28 8 -28
32 0 25 4 29 25 27 14 -1 50 -4 80 -6 30 -3 63 -8 74 -12 10 -4 21 -4 25 2 11
16 65 50 96 60 26 8 32 7 44 -11 8 -12 18 -23 21 -26z m474 24 c8 -21 -50 -44
-114 -44 -43 0 -50 3 -50 20 0 19 10 24 70 33 58 10 88 7 94 -9z m161 -21 c24
-27 30 -39 20 -41 -16 -4 -55 15 -53 26 4 20 -15 39 -35 35 -12 -2 -33 0 -47
6 -22 8 -18 10 28 10 50 1 56 -2 87 -36z m-1022 -46 c-2 -4 -10 -6 -16 -4 -7
2 -20 -2 -29 -11 -28 -24 -21 -6 8 23 20 20 29 24 35 14 4 -7 5 -17 2 -22z
m454 11 c-3 -8 -6 -5 -6 6 -1 11 2 17 5 13 3 -3 4 -12 1 -19z m539 -79 c3 -6
17 -9 30 -6 15 3 24 0 24 -9 0 -21 -23 -118 -30 -127 -9 -11 -170 54 -170 69
0 7 15 17 34 24 18 6 44 22 56 35 25 27 45 32 56 14z"/>
<path d="M2177 3233 c-4 -3 -7 -11 -7 -17 0 -6 5 -5 12 2 6 6 9 14 7 17 -3 3
-9 2 -12 -2z"/>
<path d="M1309 3493 c-13 -16 -12 -17 4 -4 9 7 17 15 17 17 0 8 -8 3 -21 -13z"/>
<path d="M9625 3471 c-6 -11 63 -27 73 -17 9 10 -19 26 -45 26 -12 0 -24 -4
-28 -9z"/>
<path d="M288 3440 c-8 -14 -26 -49 -39 -77 -25 -55 -39 -67 -39 -33 0 11 -4
20 -8 20 -8 0 -89 -80 -82 -80 78 -8 100 -6 114 9 28 31 78 140 74 163 l-3 23
-17 -25z"/>
<path d="M1480 3444 c0 -8 5 -12 10 -9 6 4 8 11 5 16 -9 14 -15 11 -15 -7z"/>
<path d="M1246 3423 c-6 -14 -5 -15 5 -6 7 7 10 15 7 18 -3 3 -9 -2 -12 -12z"/>
<path d="M9567 3417 l-16 -22 -148 17 c-81 9 -170 16 -198 16 -50 -1 -50 -1
15 -10 36 -5 130 -17 210 -28 88 -11 184 -31 243 -50 94 -30 129 -49 66 -35
-22 5 -29 4 -25 -4 9 -13 109 -15 134 -2 19 10 156 41 187 42 l20 1 -20 7
c-11 4 -31 12 -45 18 -14 7 -68 24 -121 38 -91 25 -99 26 -127 11 -17 -9 -42
-16 -55 -16 -28 0 -90 20 -97 31 -3 5 -13 -2 -23 -14z m278 -105 c-6 -7 -35
18 -35 31 0 5 9 2 20 -8 11 -10 18 -20 15 -23z"/>
<path d="M6858 3403 c6 -2 18 -2 25 0 6 3 1 5 -13 5 -14 0 -19 -2 -12 -5z"/>
<path d="M1318 3391 c-20 -4 -48 -7 -62 -6 -23 1 -26 -3 -26 -35 0 -19 -7 -44
-15 -54 -8 -11 -15 -23 -15 -27 0 -14 67 -21 89 -10 19 11 21 9 21 -15 0 -23
2 -25 15 -14 10 8 12 16 6 19 -13 8 -5 72 14 117 8 19 13 33 12 33 -1 -1 -19
-5 -39 -8z"/>
<path d="M6928 3393 c7 -3 16 -2 19 1 4 3 -2 6 -13 5 -11 0 -14 -3 -6 -6z"/>
<path d="M8215 3348 c5 -14 -4 -30 -36 -60 -40 -39 -44 -40 -96 -36 -58 5 -75
14 -53 28 23 15 -2 11 -29 -4 -21 -11 -31 -11 -66 1 -39 13 -44 12 -88 -13
-49 -27 -68 -50 -60 -71 3 -7 0 -13 -6 -13 -6 0 -11 -7 -11 -15 0 -20 -26 -31
-80 -34 -62 -4 -64 -11 -4 -12 39 -1 44 -3 24 -9 -19 -6 -12 -8 30 -9 41 0 51
2 40 10 -12 8 -11 10 5 7 15 -2 20 -11 20 -33 0 -30 0 -30 -55 -29 -30 1 -81
6 -113 11 -57 10 -57 10 -37 -9 28 -26 25 -41 -7 -34 -16 3 -64 8 -108 12 -44
3 -172 19 -284 35 -230 33 -221 32 -221 20 0 -4 17 -11 38 -14 304 -46 457
-67 502 -67 30 0 75 -5 100 -11 25 -6 92 -13 150 -14 58 -1 161 -12 230 -23
239 -40 460 -66 875 -106 148 -14 276 -28 285 -31 31 -10 457 -61 830 -99 223
-23 250 -25 250 -15 0 5 -6 9 -12 9 -31 0 -367 43 -631 80 -158 22 -345 45
-415 51 -164 13 -445 47 -497 60 -66 16 -73 21 -40 29 27 7 25 8 -16 9 -26 0
-63 8 -83 16 -28 12 -40 13 -54 4 -25 -16 -151 -2 -159 17 -7 18 23 67 92 154
46 57 59 68 73 60 9 -5 36 -14 59 -20 28 -7 51 -21 65 -40 11 -16 25 -27 30
-24 4 3 8 -1 8 -8 1 -21 36 -61 56 -65 11 -1 52 -6 93 -9 70 -7 73 -6 63 12
-14 27 -43 50 -72 59 -42 12 -70 34 -64 50 5 11 -1 15 -22 15 -16 0 -40 3 -53
7 -22 6 -23 4 -18 -23 l7 -29 -15 30 c-8 17 -25 57 -37 90 l-23 60 -70 18
c-141 37 -163 40 -205 29 -22 -5 -42 -6 -45 -2 -3 4 -14 10 -25 13 -17 4 -20
2 -15 -15z m-285 -106 c0 -4 -16 -12 -35 -18 -36 -11 -44 -7 -23 14 13 13 58
17 58 4z m116 -28 c27 -9 54 -21 59 -26 6 -6 3 -7 -8 -2 -13 5 -16 2 -11 -11
6 -15 0 -16 -57 -9 -73 7 -100 24 -79 48 16 20 34 20 96 0z m134 -27 c-18 -17
-28 -20 -36 -13 -10 9 15 25 56 35 2 0 -7 -9 -20 -22z m-273 -3 c-3 -3 -12 -4
-19 -1 -8 3 -5 6 6 6 11 1 17 -2 13 -5z m223 -44 c0 -5 -4 -10 -10 -10 -5 0
-10 5 -10 10 0 6 5 10 10 10 6 0 10 -4 10 -10z m-90 -10 c22 -6 23 -8 7 -15
-9 -4 -23 -3 -30 3 -6 6 -25 12 -42 15 -28 4 -28 4 5 5 19 0 46 -3 60 -8z
m-247 -137 c-13 -2 -33 -2 -45 0 -13 2 -3 4 22 4 25 0 35 -2 23 -4z m616 -69
c8 -7 -63 -2 -94 7 -20 5 -9 6 30 2 33 -3 62 -7 64 -9z m44 -11 c-7 -2 -19 -2
-25 0 -7 3 -2 5 12 5 14 0 19 -2 13 -5z"/>
<path d="M8853 3304 c-24 -9 -60 -24 -80 -34 l-38 -19 55 -2 c30 -1 71 -1 91
0 25 2 38 -2 42 -13 4 -9 12 -16 19 -16 6 0 22 -10 35 -22 l23 -21 0 49 c0 28
-6 58 -12 67 -18 24 -85 29 -135 11z"/>
<path d="M41 3218 c-17 -11 -31 -22 -31 -25 0 -2 5 -1 10 2 6 4 17 2 24 -4 10
-8 17 -6 30 8 18 20 56 18 56 -3 0 -23 -22 -36 -43 -25 -15 8 -23 7 -34 -4
-17 -16 -9 -42 9 -31 7 4 8 2 4 -4 -4 -7 -15 -12 -25 -12 -10 0 -24 -7 -31
-15 -9 -11 -9 -15 -1 -15 8 0 9 -5 1 -19 -5 -11 -10 -34 -10 -52 l0 -33 43 60
c24 32 50 70 57 84 7 14 28 43 46 66 l33 40 -53 1 c-37 0 -63 -6 -85 -19z"/>
<path d="M9708 3223 c7 -3 16 -2 19 1 4 3 -2 6 -13 5 -11 0 -14 -3 -6 -6z"/>
<path d="M694 3181 l38 -38 -27 0 c-18 0 -34 10 -52 33 -20 27 -29 32 -39 23
-18 -15 -18 -29 0 -29 7 0 21 -11 30 -25 18 -28 13 -33 -10 -10 -9 8 -25 15
-37 15 -40 0 -140 -19 -149 -28 -6 -6 -1 -23 11 -43 20 -32 28 -89 15 -102 -4
-3 -36 6 -73 20 -49 19 -84 25 -136 25 -38 -1 -75 4 -82 10 -16 13 -17 4 -2
-24 22 -40 -10 -8 -37 37 l-26 45 -23 -28 c-12 -15 -26 -42 -30 -60 -5 -26
-14 -36 -38 -44 -26 -10 -28 -12 -14 -23 9 -7 13 -15 9 -20 -4 -4 3 -5 14 -1
15 5 24 2 28 -10 5 -13 2 -15 -14 -11 -24 6 -26 -5 -5 -23 8 -7 12 -16 9 -22
-9 -14 -34 12 -34 36 0 17 -2 18 -10 6 -5 -8 -10 -56 -10 -106 l0 -92 73 30
c110 45 117 48 117 42 0 -3 -17 -12 -37 -20 -21 -9 -64 -27 -95 -41 l-58 -26
0 -92 0 -93 30 -12 c17 -7 30 -16 30 -21 0 -5 7 -5 17 -2 12 5 14 3 8 -7 -5
-9 -4 -11 4 -6 6 4 17 3 24 -2 7 -5 22 -8 34 -7 12 1 20 -2 17 -7 -3 -4 -1 -8
5 -8 5 0 17 -3 27 -7 12 -4 15 -3 10 5 -5 8 5 12 33 12 23 0 41 -4 41 -10 0
-21 62 -43 350 -121 80 -21 150 -37 156 -35 6 2 29 1 52 -4 23 -4 45 -3 50 2
6 6 17 6 29 -1 11 -5 29 -7 41 -4 15 4 36 -6 72 -35 54 -43 54 -51 0 -47 -26
2 -40 -3 -55 -20 -11 -13 -69 -44 -130 -69 -126 -54 -206 -99 -224 -128 -20
-32 -5 -33 36 -1 21 17 101 62 178 101 l140 71 165 4 c135 4 158 2 127 -7 -21
-6 -36 -14 -33 -17 2 -2 -26 -17 -65 -34 -38 -16 -67 -30 -66 -32 5 -4 146 42
202 67 62 27 206 40 230 20 13 -11 16 -11 13 1 -2 11 9 14 47 14 28 0 55 -2
60 -6 22 -14 75 -27 75 -19 0 5 -26 23 -57 40 -32 17 -93 56 -137 87 -85 60
-87 72 -11 73 22 0 57 3 78 6 l38 7 -58 19 c-39 13 -70 32 -95 58 -36 39 -36
40 -22 70 20 40 124 90 188 90 44 0 45 1 34 20 -10 16 -10 24 0 40 16 27 15
30 -10 30 -12 0 -52 -18 -89 -40 -37 -22 -70 -40 -74 -40 -3 0 -19 -10 -35
-22 -16 -12 -33 -19 -36 -15 -4 4 5 11 20 17 33 12 43 36 23 58 -8 9 -17 26
-19 37 -4 23 1 22 -208 11 -77 -5 -152 -15 -195 -28 -42 -12 -105 -21 -157
-22 l-88 -3 35 24 c36 24 45 43 22 43 -8 0 -40 -9 -73 -20 -75 -25 -104 -26
-104 -2 1 19 120 103 210 148 30 15 65 34 78 42 l23 15 -29 14 c-19 9 -48 44
-80 97 -28 45 -71 104 -96 131 -25 26 -46 52 -46 56 0 12 -72 59 -89 59 -9 0
0 -15 23 -39z m-4 -92 c0 -11 -61 -16 -67 -6 -3 6 -1 7 5 3 7 -4 12 -4 12 1 0
4 11 8 25 8 14 0 25 -3 25 -6z m70 -59 c0 -5 -2 -10 -4 -10 -3 0 -8 5 -11 10
-3 6 -1 10 4 10 6 0 11 -4 11 -10z m54 -39 c2 -3 -19 -4 -46 -2 -28 2 -46 6
-40 10 13 8 80 2 86 -8z m-399 -66 c-27 -7 -63 -18 -78 -24 -36 -14 -50 -14
-41 0 12 20 69 38 119 38 l50 0 -50 -14z m93 -92 c23 -19 42 -40 42 -48 0 -22
-32 -23 -72 -3 -21 10 -60 23 -88 29 -27 6 -50 14 -50 19 0 15 84 50 105 44
11 -4 39 -22 63 -41z m-415 16 c-8 -8 -13 -7 -18 2 -5 8 -4 10 3 5 7 -4 12 -2
12 5 0 7 3 9 7 6 4 -4 2 -12 -4 -18z m-23 -43 c0 -2 -8 -10 -17 -17 -16 -13
-17 -12 -4 4 13 16 21 21 21 13z m507 -452 c-3 -3 -12 -4 -19 -1 -8 3 -5 6 6
6 11 1 17 -2 13 -5z"/>
<path d="M9858 3203 c7 -3 16 -2 19 1 4 3 -2 6 -13 5 -11 0 -14 -3 -6 -6z"/>
<path d="M6298 3085 c-23 -13 -26 -19 -21 -50 4 -27 2 -35 -8 -33 -10 2 -12
-6 -9 -32 3 -19 4 -54 4 -77 -2 -61 16 -55 66 21 23 36 52 72 65 80 27 18 73
21 95 6 13 -9 11 -13 -10 -30 -14 -11 -20 -20 -14 -20 5 0 15 5 21 11 9 9 27
9 72 -1 34 -7 61 -16 61 -20 0 -12 -207 -203 -235 -218 -29 -15 -30 -20 -9
-51 16 -22 15 -24 -20 -59 l-36 -37 -58 59 c-31 32 -48 52 -36 46 18 -11 25
-9 47 10 14 13 23 28 20 33 -4 7 1 8 12 3 15 -5 16 -4 6 8 -7 8 -19 12 -27 9
-10 -4 -17 2 -21 15 -4 17 -9 19 -28 12 -13 -5 -26 -6 -29 -3 -3 4 -6 1 -6 -7
0 -10 -3 -10 -15 0 -13 11 -14 10 -9 -5 6 -13 4 -16 -5 -10 -10 6 -11 2 -6
-15 6 -20 5 -22 -11 -15 -51 22 -91 16 -215 -30 -146 -56 -185 -58 -329 -21
-85 21 -98 22 -122 10 -37 -19 -50 -46 -46 -96 2 -35 7 -43 28 -50 14 -4 3 -4
-25 0 -90 13 -147 7 -206 -20 -37 -17 -61 -23 -70 -17 -22 14 -39 10 -39 -7 0
-9 -8 -23 -17 -30 -17 -13 -17 -13 0 -14 21 0 23 -26 1 -34 -9 -3 -44 -6 -79
-6 -43 0 -66 -5 -75 -15 -7 -8 -20 -15 -30 -15 -10 0 -33 -6 -51 -14 l-34 -14
30 -7 c17 -3 48 -15 70 -25 22 -10 99 -32 170 -49 72 -17 195 -46 275 -65 80
-19 183 -40 230 -46 47 -6 144 -24 215 -40 72 -16 155 -31 185 -34 54 -6 54
-6 25 9 l-30 14 35 0 c35 0 64 -5 175 -33 33 -8 83 -17 110 -19 57 -5 81 -13
88 -31 4 -9 -2 -11 -19 -8 -36 7 -29 -6 13 -23 31 -13 39 -13 51 -2 10 11 25
12 65 5 29 -6 77 -7 107 -3 30 4 69 9 85 11 17 2 67 -8 113 -22 46 -14 89 -23
95 -21 7 3 -22 21 -64 41 -42 19 -94 50 -116 69 -22 18 -62 41 -88 51 -34 13
-43 21 -34 27 10 6 7 9 -12 9 -30 0 -93 41 -169 110 -30 27 -95 73 -143 102
-130 77 -111 80 248 43 72 -7 226 -14 344 -15 118 0 219 -4 224 -7 5 -3 6 3 3
15 -9 27 6 35 78 39 56 3 288 -24 411 -47 28 -5 149 -19 270 -30 163 -15 229
-25 255 -39 20 -10 69 -21 110 -25 41 -3 68 -3 60 1 -15 6 -80 71 -80 79 0 3
6 2 13 -1 6 -4 4 0 -6 8 -11 9 -17 26 -15 45 2 24 6 29 25 27 12 -1 39 -14 60
-29 l38 -28 -31 29 c-64 58 -168 127 -190 125 -29 -2 -161 60 -197 92 -24 22
-26 29 -16 48 10 19 8 25 -15 45 -15 12 -65 34 -111 49 -80 25 -90 26 -162 15
-42 -6 -82 -16 -88 -21 -6 -5 -60 -34 -120 -63 l-109 -54 -20 40 c-17 32 -30
43 -73 57 -53 18 -177 82 -352 180 -129 72 -145 78 -326 117 -210 46 -206 45
-237 28z m655 -273 c-2 -15 3 -22 15 -23 14 0 14 -2 -3 -8 -20 -8 -20 -8 2
-15 30 -10 73 -45 73 -60 0 -10 -12 -10 -57 0 -32 7 -79 16 -104 19 -37 5 -49
11 -58 31 -19 41 -19 41 74 75 37 14 60 6 58 -19z m-244 -49 c-30 -32 -68 -75
-84 -97 -16 -21 -31 -33 -33 -27 -7 22 130 181 156 181 9 0 -7 -24 -39 -57z
m331 -138 c-7 -8 -19 -15 -27 -15 -10 0 -7 8 9 31 18 24 24 27 26 14 2 -9 -2
-22 -8 -30z m122 13 c-9 -9 -12 -7 -12 12 0 19 3 21 12 12 9 -9 9 -15 0 -24z
m-540 -22 c-19 -32 -19 -35 -4 -39 14 -4 12 -6 -6 -12 -18 -6 -20 -10 -10 -16
9 -6 4 -8 -14 -7 -29 2 -29 3 15 66 37 51 47 55 19 8z m512 18 c3 -8 2 -13 -3
-10 -5 3 -14 -1 -21 -9 -7 -8 -19 -15 -28 -15 -11 0 -9 6 9 24 29 29 35 30 43
10z m273 -8 c-2 -6 -13 -16 -24 -21 -12 -6 -29 -17 -39 -25 -16 -14 -17 -13
-10 5 7 18 5 18 -17 -3 -22 -21 -71 -30 -81 -14 -13 21 63 77 93 67 11 -3 28
-2 38 3 20 12 45 4 40 -12z m-247 -75 c-13 -25 -59 -61 -76 -61 -8 0 -14 7
-14 16 0 10 6 14 14 11 9 -4 17 1 21 12 3 10 15 23 28 29 33 16 39 14 27 -7z
m-1365 -21 c3 -5 1 -10 -4 -10 -6 0 -11 5 -11 10 0 6 2 10 4 10 3 0 8 -4 11
-10z m-146 -64 c97 -36 111 -46 111 -82 0 -24 -20 -44 -69 -69 -81 -41 -82
-41 -242 41 -157 80 -187 99 -178 108 14 14 188 45 234 41 28 -2 92 -19 144
-39z m594 -149 c-7 -11 -117 -2 -178 15 -22 6 -62 14 -90 18 -38 6 -19 8 78 8
70 0 131 2 134 5 9 9 63 -35 56 -46z"/>
<path d="M6883 2803 c9 -2 25 -2 35 0 9 3 1 5 -18 5 -19 0 -27 -2 -17 -5z"/>
<path d="M6878 2783 c12 -2 30 -2 40 0 9 3 -1 5 -23 4 -22 0 -30 -2 -17 -4z"/>
<path d="M8900 3040 c0 -5 7 -7 15 -4 8 4 15 8 15 10 0 2 -7 4 -15 4 -8 0 -15
-4 -15 -10z"/>
<path d="M3615 2985 c-30 -9 -35 -13 -20 -16 17 -4 9 -15 -48 -69 -37 -35 -63
-68 -59 -72 5 -5 -5 -24 -23 -43 -29 -32 -36 -35 -88 -35 -70 0 -83 -16 -20
-26 27 -3 53 -10 58 -14 12 -10 174 -36 342 -55 127 -15 281 -12 314 5 25 14
39 12 33 -3 -10 -28 119 -77 203 -77 23 0 65 5 93 11 37 8 78 8 153 -1 56 -7
143 -14 192 -16 50 -2 119 -9 155 -14 149 -21 156 -21 169 -6 10 12 4 16 -41
25 -133 27 -431 61 -529 61 -68 0 -94 20 -57 43 13 9 50 21 83 28 58 13 59 14
22 17 -22 2 -53 -1 -69 -7 -44 -16 -101 -13 -150 6 -24 9 -46 19 -50 22 -5 4
8 31 27 61 40 62 45 86 17 71 -19 -10 -120 7 -170 29 -18 8 -30 5 -63 -17 -38
-25 -41 -25 -57 -9 -14 13 -14 18 -4 25 19 11 -19 21 -83 21 -64 0 -176 22
-240 47 -43 17 -56 18 -90 8z m-18 -102 c-30 -17 -44 -30 -38 -36 15 -15 1
-37 -25 -37 -24 0 -35 19 -11 21 6 0 3 4 -7 8 -16 6 -9 13 44 39 77 39 104 42
37 5z m215 0 l28 -5 -44 -30 c-24 -16 -49 -35 -56 -43 -10 -12 -16 -10 -37 16
-14 16 -23 32 -20 35 17 17 74 42 87 38 8 -3 27 -8 42 -11z"/>
<path d="M10113 2963 c9 -2 23 -2 30 0 6 3 -1 5 -18 5 -16 0 -22 -2 -12 -5z"/>
<path d="M10188 2953 c12 -2 30 -2 40 0 9 3 -1 5 -23 4 -22 0 -30 -2 -17 -4z"/>
<path d="M6449 2923 c-13 -16 -12 -17 4 -4 9 7 17 15 17 17 0 8 -8 3 -21 -13z"/>
<path d="M7050 2894 c46 -25 89 -48 95 -52 6 -4 2 1 -10 12 -20 18 -148 86
-162 86 -5 0 30 -21 77 -46z"/>
<path d="M4379 2892 c25 -42 28 -44 33 -24 4 14 -1 23 -19 31 -21 10 -23 9
-14 -7z"/>
<path d="M4048 2893 c7 -3 16 -2 19 1 4 3 -2 6 -13 5 -11 0 -14 -3 -6 -6z"/>
<path d="M4446 2891 c-8 -12 20 -33 38 -29 10 2 8 8 -9 21 -13 9 -26 13 -29 8z"/>
<path d="M1740 2880 c-9 -6 -10 -10 -3 -10 6 0 15 5 18 10 8 12 4 12 -15 0z"/>
<path d="M917 2794 c-16 -9 -27 -18 -24 -21 6 -5 67 24 67 32 0 8 -14 5 -43
-11z"/>
<path d="M1337 2789 c7 -7 15 -10 18 -7 3 3 -2 9 -12 12 -14 6 -15 5 -6 -5z"/>
<path d="M1630 2760 c8 -5 20 -10 25 -10 6 0 3 5 -5 10 -8 5 -19 10 -25 10 -5
0 -3 -5 5 -10z"/>
<path d="M7948 2692 c49 -38 91 -50 222 -67 74 -9 149 -19 165 -22 17 -3 27
-3 24 1 -4 4 -47 16 -95 26 l-89 20 68 -4 c125 -7 78 11 -61 23 -75 6 -157 18
-182 26 -62 21 -81 19 -52 -3z"/>
<path d="M1787 2690 c26 -11 73 -15 128 -11 36 3 37 4 15 11 -36 12 -172 11
-143 0z"/>
<path d="M2008 2693 c6 -2 18 -2 25 0 6 3 1 5 -13 5 -14 0 -19 -2 -12 -5z"/>
<path d="M1965 2680 c-3 -5 0 -10 8 -10 8 0 30 -2 48 -5 l34 -5 -35 14 c-44
18 -47 18 -55 6z"/>
<path d="M2778 2683 c7 -3 16 -2 19 1 4 3 -2 6 -13 5 -11 0 -14 -3 -6 -6z"/>
<path d="M2893 2680 c-22 -9 -39 -43 -28 -59 3 -6 -2 -14 -11 -19 -10 -6 9 -9
58 -8 53 0 86 -6 120 -21 25 -12 49 -19 52 -16 2 3 36 -2 75 -11 38 -9 74 -16
78 -16 18 1 -164 100 -236 129 -43 17 -80 31 -82 30 -2 0 -14 -4 -26 -9z"/>
<path d="M2498 2673 c7 -3 16 -2 19 1 4 3 -2 6 -13 5 -11 0 -14 -3 -6 -6z"/>
<path d="M2728 2663 c7 -3 16 -2 19 1 4 3 -2 6 -13 5 -11 0 -14 -3 -6 -6z"/>
<path d="M8465 2633 c11 -3 26 -10 33 -16 17 -14 12 -13 242 -37 510 -52 693
-73 814 -91 72 -10 149 -18 171 -18 31 1 25 3 -25 10 -36 4 -121 17 -190 28
-69 11 -181 29 -250 41 -69 11 -231 31 -360 45 -129 14 -271 30 -314 35 -82
10 -159 12 -121 3z"/>
<path d="M1958 2623 c7 -3 16 -2 19 1 4 3 -2 6 -13 5 -11 0 -14 -3 -6 -6z"/>
<path d="M3889 2559 c-35 -23 -75 -52 -89 -64 -14 -13 -42 -31 -64 -40 -21 -9
-35 -20 -30 -24 20 -18 258 -77 444 -111 141 -25 249 -50 272 -62 15 -7 17 -5
12 21 -6 29 -5 30 42 36 59 9 68 13 55 28 -13 17 -30 116 -20 119 5 2 1 20 -8
41 -15 32 -22 37 -50 37 -31 0 -33 -2 -23 -20 6 -11 15 -20 20 -20 6 0 10 -4
10 -10 0 -16 -80 -11 -111 7 -35 21 -37 33 -6 34 16 1 17 3 5 6 -10 2 -37 -9
-61 -26 l-43 -29 -58 16 c-53 14 -59 14 -86 -1 -33 -20 -80 -22 -101 -4 -9 6
-23 24 -32 40 -10 15 -24 27 -32 27 -18 0 -19 -5 -3 -30 17 -26 8 -32 -47 -28
l-47 3 61 44 c56 41 67 51 58 51 -2 0 -33 -18 -68 -41z"/>
<path d="M2540 2458 c-20 -5 -49 -25 -66 -45 -19 -23 -35 -33 -43 -29 -9 6 -9
11 0 22 6 8 9 14 5 14 -4 0 -20 -21 -36 -46 -21 -34 -27 -51 -20 -64 8 -15 2
-19 -43 -29 -29 -7 -63 -18 -77 -26 -24 -13 -23 -13 25 -19 133 -16 245 -40
290 -62 28 -13 101 -40 164 -59 63 -20 133 -44 155 -54 23 -9 60 -26 83 -36
23 -10 44 -26 46 -37 4 -13 15 -18 44 -19 76 -2 113 -6 121 -14 4 -5 -2 -5
-13 -2 -20 7 -20 7 -1 -8 22 -17 40 -20 31 -5 -9 15 0 12 39 -11 20 -11 41
-19 48 -17 6 2 -37 37 -98 77 -129 87 -138 95 -102 86 20 -5 29 -2 37 13 15
29 14 92 -1 92 -10 0 -10 2 0 8 8 6 -18 23 -75 51 -100 50 -156 86 -198 129
-22 22 -43 33 -75 37 -47 5 -45 1 3 -9 l28 -7 -37 -44 -37 -44 -36 15 c-43 17
-76 55 -94 108 -15 46 -19 48 -67 34z"/>
<path d="M9783 2463 c9 -2 23 -2 30 0 6 3 -1 5 -18 5 -16 0 -22 -2 -12 -5z"/>
<path d="M8675 2395 c-55 -56 -68 -65 -89 -59 -20 5 -26 2 -26 -10 0 -15 -8
-16 -62 -10 -87 11 -103 11 -106 -1 -2 -5 29 -17 68 -26 43 -10 76 -24 85 -35
20 -27 18 -34 -7 -34 -19 0 -20 -2 -8 -10 13 -9 13 -11 0 -19 -14 -10 -141
-25 -175 -21 -33 4 -55 0 -55 -8 0 -10 53 -11 743 -16 301 -2 547 0 547 4 0 5
17 10 38 12 20 2 -17 4 -83 3 -66 0 -158 4 -205 8 -85 8 -180 32 -180 46 0 4
-16 13 -35 20 -19 7 -41 18 -48 26 -8 7 -52 32 -98 55 -90 45 -199 117 -199
131 0 5 -9 9 -20 9 -12 0 -47 -27 -85 -65z"/>
<path d="M3600 2411 c0 -16 -6 -32 -12 -34 -8 -3 -6 -6 5 -6 13 -1 17 7 17 34
0 19 -2 35 -5 35 -3 0 -5 -13 -5 -29z"/>
<path d="M8262 2407 c-8 -10 -6 -13 9 -13 20 0 25 11 10 20 -5 3 -13 0 -19 -7z"/>
<path d="M9793 2313 c9 -2 23 -2 30 0 6 3 -1 5 -18 5 -16 0 -22 -2 -12 -5z"/>
<path d="M9888 2303 c12 -2 30 -2 40 0 9 3 -1 5 -23 4 -22 0 -30 -2 -17 -4z"/>
<path d="M9988 2293 c12 -2 30 -2 40 0 9 3 -1 5 -23 4 -22 0 -30 -2 -17 -4z"/>
<path d="M4700 2281 c0 -6 4 -11 9 -11 5 0 24 -12 43 -27 18 -15 27 -20 19
-10 -21 26 -71 60 -71 48z"/>
<path d="M10083 2283 c9 -2 25 -2 35 0 9 3 1 5 -18 5 -19 0 -27 -2 -17 -5z"/>
<path d="M3220 2263 c19 -8 48 -21 63 -29 16 -8 34 -14 40 -14 7 0 21 -12 32
-27 11 -14 26 -32 33 -40 18 -18 43 -17 36 2 -6 15 23 20 84 15 37 -3 25 10
-35 36 -39 18 -67 24 -88 20 -21 -4 -26 -3 -15 3 17 12 18 11 -82 35 -84 20
-115 20 -68 -1z"/>
<path d="M4458 2253 c6 -2 18 -2 25 0 6 3 1 5 -13 5 -14 0 -19 -2 -12 -5z"/>
<path d="M4553 2253 c9 -2 25 -2 35 0 9 3 1 5 -18 5 -19 0 -27 -2 -17 -5z"/>
<path d="M4067 2229 c7 -7 15 -10 18 -7 3 3 -2 9 -12 12 -14 6 -15 5 -6 -5z"/>
<path d="M4108 2223 c7 -3 16 -2 19 1 4 3 -2 6 -13 5 -11 0 -14 -3 -6 -6z"/>
<path d="M4185 2200 c3 -5 8 -10 11 -10 2 0 4 5 4 10 0 6 -5 10 -11 10 -5 0
-7 -4 -4 -10z"/>
<path d="M4268 2173 c6 -2 12 -11 12 -19 0 -8 5 -14 10 -14 16 0 11 27 -6 34
-9 3 -19 6 -22 5 -4 0 -1 -3 6 -6z"/>
<path d="M4708 2168 c11 -14 10 -17 -10 -24 -19 -6 -14 -9 32 -20 66 -16 129
-17 150 -4 13 8 13 10 1 10 -8 0 -29 12 -45 27 -17 16 -25 21 -18 13 6 -8 12
-18 12 -22 0 -16 -64 -7 -99 14 -25 15 -32 17 -23 6z"/>
<path d="M7103 2163 c15 -2 39 -2 55 0 15 2 2 4 -28 4 -30 0 -43 -2 -27 -4z"/>
<path d="M7198 2163 c7 -3 16 -2 19 1 4 3 -2 6 -13 5 -11 0 -14 -3 -6 -6z"/>
<path d="M8158 2163 c6 -2 18 -2 25 0 6 3 1 5 -13 5 -14 0 -19 -2 -12 -5z"/>
<path d="M8223 2163 c15 -2 37 -2 50 0 12 2 0 4 -28 4 -27 0 -38 -2 -22 -4z"/>
<path d="M9788 2163 c7 -3 16 -2 19 1 4 3 -2 6 -13 5 -11 0 -14 -3 -6 -6z"/>
<path d="M2083 2153 c42 -2 112 -2 155 0 42 1 7 3 -78 3 -85 0 -120 -2 -77 -3z"/>
<path d="M4313 2145 c4 -11 47 -13 92 -4 23 4 15 7 -33 10 -39 2 -61 0 -59 -6z"/>
<path d="M7808 2153 c12 -2 32 -2 45 0 12 2 2 4 -23 4 -25 0 -35 -2 -22 -4z"/>
<path d="M1761 2140 c10 -6 45 -6 90 -1 l74 8 -90 1 c-61 1 -85 -2 -74 -8z"/>
<path d="M3778 2133 c6 -2 18 -2 25 0 6 3 1 5 -13 5 -14 0 -19 -2 -12 -5z"/>
<path d="M4458 2133 c12 -2 30 -2 40 0 9 3 -1 5 -23 4 -22 0 -30 -2 -17 -4z"/>
<path d="M5070 2130 c20 -13 53 -13 45 0 -3 6 -18 10 -33 10 -21 0 -24 -2 -12
-10z"/>
<path d="M5138 2133 c7 -3 16 -2 19 1 4 3 -2 6 -13 5 -11 0 -14 -3 -6 -6z"/>
<path d="M1565 2120 c3 -5 8 -10 11 -10 2 0 4 5 4 10 0 6 -5 10 -11 10 -5 0
-7 -4 -4 -10z"/>
<path d="M4588 2123 c6 -2 18 -2 25 0 6 3 1 5 -13 5 -14 0 -19 -2 -12 -5z"/>
<path d="M5188 2123 c7 -3 16 -2 19 1 4 3 -2 6 -13 5 -11 0 -14 -3 -6 -6z"/>
<path d="M5238 2123 c7 -3 16 -2 19 1 4 3 -2 6 -13 5 -11 0 -14 -3 -6 -6z"/>
<path d="M5280 2123 c0 -7 59 -22 187 -50 16 -4 24 -15 29 -39 8 -45 27 -44
22 1 -2 19 0 35 5 35 12 0 67 -29 67 -36 0 -3 -4 -2 -10 1 -5 3 -10 2 -10 -4
0 -5 10 -12 23 -14 19 -4 19 -4 -5 -6 -15 0 -29 -5 -32 -10 -8 -12 83 -23 128
-16 23 4 36 2 36 -5 0 -6 5 -8 10 -5 20 13 9 25 -50 51 -33 14 -57 30 -54 35
3 5 -2 6 -10 3 -19 -7 -22 12 -3 20 6 4 2 4 -11 2 -13 -2 -44 5 -70 17 -35 15
-73 21 -149 24 -57 2 -103 0 -103 -4z"/>
<path d="M1005 1090 c-3 -5 -1 -10 4 -10 6 0 11 5 11 10 0 6 -2 10 -4 10 -3 0
-8 -4 -11 -10z"/>
<path d="M1484 1020 c2 -17 1 -28 -2 -26 -4 2 -16 0 -27 -5 -17 -6 -14 -8 12
-8 33 -1 44 15 35 52 -7 30 -23 19 -18 -13z"/>
<path d="M920 1030 c0 -5 5 -10 10 -10 6 0 10 5 10 10 0 6 -4 10 -10 10 -5 0
-10 -4 -10 -10z"/>
<path d="M1405 970 c-3 -5 -1 -10 4 -10 6 0 11 5 11 10 0 6 -2 10 -4 10 -3 0
-8 -4 -11 -10z"/>
<path d="M1476 956 c9 -23 33 -28 27 -5 -3 10 -11 19 -19 19 -7 0 -11 -6 -8
-14z"/>
<path d="M880 930 c0 -5 5 -10 10 -10 6 0 10 5 10 10 0 6 -4 10 -10 10 -5 0
-10 -4 -10 -10z"/>
<path d="M960 929 c0 -5 5 -7 10 -4 6 3 10 8 10 11 0 2 -4 4 -10 4 -5 0 -10
-5 -10 -11z"/>
<path d="M1320 889 c0 -5 5 -7 10 -4 6 3 10 8 10 11 0 2 -4 4 -10 4 -5 0 -10
-5 -10 -11z"/>
<path d="M1269 849 c-11 -11 -19 -17 -19 -14 0 3 -8 -3 -18 -12 -13 -13 -16
-23 -10 -35 12 -24 10 -28 -12 -28 -11 0 -20 -7 -20 -15 0 -8 -5 -15 -11 -15
-6 0 -9 6 -6 14 4 10 -7 22 -30 36 -32 19 -40 20 -61 9 -13 -8 -19 -15 -13
-17 22 -7 0 -21 -26 -16 -23 4 -25 3 -13 -11 11 -13 10 -15 -3 -9 -11 4 -20
-2 -28 -20 -7 -14 -16 -26 -21 -26 -5 0 -6 5 -2 11 4 7 1 10 -7 7 -8 -3 -15
-14 -17 -25 -2 -12 -10 -24 -19 -27 -13 -5 -14 -4 -3 9 7 8 9 15 4 14 -18 -1
-87 -44 -87 -54 -1 -14 -23 -35 -37 -35 -6 0 -8 5 -5 10 4 6 -9 10 -30 10 -28
0 -38 -5 -42 -20 -4 -15 -14 -20 -38 -20 -18 0 -36 6 -38 13 -4 9 -8 8 -16 -3
-9 -13 -11 -13 -11 1 0 9 -7 20 -16 23 -21 8 -24 8 -24 -5 0 -5 4 -8 9 -5 5 3
12 -1 15 -9 4 -13 2 -14 -14 -5 -11 6 -20 15 -20 21 0 5 -6 4 -14 -3 -8 -7
-12 -16 -9 -20 2 -5 0 -8 -6 -8 -5 0 -15 8 -20 18 -9 15 -10 15 -11 1 0 -28
-49 -33 -75 -9 -18 17 -30 20 -63 14 -33 -5 -43 -3 -48 10 -8 20 -24 21 -24 0
0 -8 5 -12 10 -9 6 3 10 -1 10 -10 0 -9 -4 -13 -10 -10 -5 3 -10 2 -10 -4 0
-5 -19 -11 -42 -13 -40 -3 -44 -5 -52 -40 -5 -21 -14 -38 -19 -38 -5 0 -7 7
-3 15 4 12 2 13 -13 3 -18 -11 -26 -68 -9 -68 4 0 8 4 8 10 0 5 3 9 8 8 4 -1
17 3 29 10 19 11 22 10 20 -7 -1 -15 -5 -17 -13 -10 -9 7 -15 5 -22 -8 -11
-21 -5 -46 9 -37 5 3 9 0 9 -5 0 -6 -7 -11 -15 -11 -8 0 -15 5 -15 10 0 6 -8
5 -20 -2 -21 -14 -19 -21 8 -23 9 0 18 -5 19 -9 3 -19 28 -24 47 -10 26 18 41
18 24 0 -7 -8 -16 -12 -20 -9 -5 2 -8 2 -8 -2 0 -12 45 -22 52 -12 4 7 9 5 14
-7 4 -11 2 -21 -7 -27 -11 -7 -11 -9 4 -9 9 0 17 -6 17 -14 0 -8 4 -17 9 -20
5 -4 8 5 6 19 -3 29 12 33 32 7 8 -9 12 -12 9 -5 -8 15 8 25 28 17 19 -7 21
-29 3 -43 -53 -44 -69 -60 -54 -55 25 9 21 -5 -9 -31 -17 -15 -22 -25 -15 -29
6 -4 8 -18 5 -33 -5 -17 -3 -24 4 -19 6 3 14 1 18 -5 5 -8 3 -9 -6 -4 -9 6
-10 1 -5 -16 4 -17 4 -20 -3 -10 -8 11 -11 9 -14 -9 -3 -22 -4 -22 -19 -8 -16
17 -47 9 -36 -9 9 -14 308 -17 317 -4 4 7 17 8 41 1 30 -8 32 -8 16 4 -16 13
-17 15 -2 30 25 24 55 38 71 32 8 -3 14 -1 14 5 0 6 4 7 10 4 6 -3 7 1 4 9 -3
9 -2 16 4 16 6 0 13 -6 15 -12 4 -10 6 -10 6 0 1 7 8 20 16 28 8 8 18 21 23
29 4 8 20 16 35 17 15 1 27 8 27 15 0 7 11 13 25 13 14 0 24 3 24 8 -3 19 2
26 10 13 7 -11 14 -9 35 14 14 15 29 25 32 22 3 -3 16 5 28 18 16 17 26 21 37
14 22 -14 29 -11 26 13 -1 17 5 25 31 33 18 6 29 14 26 18 -4 4 0 7 9 7 10 0
17 7 17 16 0 12 6 15 23 10 12 -3 25 -6 30 -6 4 0 7 -9 7 -20 0 -10 8 -23 17
-29 10 -5 14 -13 10 -17 -5 -5 -12 -2 -17 6 -5 8 -12 11 -16 7 -4 -4 -1 -15 8
-24 20 -19 53 -10 44 12 -3 8 -2 15 3 15 14 0 20 -41 7 -46 -7 -3 -13 -11 -13
-18 0 -8 6 -12 14 -9 7 3 13 9 13 13 0 5 8 7 18 5 9 -2 23 -4 30 -4 18 -1 15
-19 -5 -24 -10 -3 -1 -5 19 -6 20 0 40 -6 43 -11 5 -8 11 -8 20 0 9 8 15 8 20
0 11 -18 25 -11 25 13 0 18 2 19 10 7 5 -8 10 -13 11 -10 5 27 4 48 -2 44 -4
-2 -16 13 -26 33 -16 33 -18 35 -21 16 -2 -13 -7 -23 -12 -23 -4 0 -6 9 -3 19
3 11 0 28 -6 38 -6 10 -11 13 -11 5 0 -7 -4 -10 -10 -7 -12 8 -13 -5 0 -25 5
-9 5 -19 -1 -26 -5 -6 -10 -23 -11 -38 -4 -51 -20 -30 -34 47 -3 21 -14 42
-23 46 -9 5 -24 23 -34 39 -13 24 -15 32 -5 38 7 4 10 4 6 -1 -4 -4 2 -20 12
-36 16 -21 28 -27 53 -27 32 1 50 15 41 30 -8 13 -26 9 -18 -4 4 -7 4 -10 0
-6 -5 4 -18 3 -31 -2 -29 -11 -39 -2 -22 19 9 10 12 31 10 58 -4 32 -9 42 -26
45 -12 2 -30 -4 -39 -14 -10 -10 -13 -18 -8 -18 6 0 10 -4 10 -10 0 -18 -30
-11 -31 8 0 14 -2 14 -9 -3 -7 -16 -9 -17 -9 -3 -1 9 -7 18 -13 21 -10 4 -10
7 -1 17 10 11 10 16 0 24 -7 6 -10 10 -8 9 2 -2 10 5 17 15 13 16 13 16 15 0
3 -34 4 -37 17 -49 10 -11 12 -9 12 8 0 12 -5 25 -11 29 -8 5 -6 10 5 16 9 5
16 14 16 20 0 7 -5 7 -14 -1 -10 -8 -16 -9 -21 -1 -3 6 -10 8 -14 6 -4 -3 -13
-1 -20 4 -14 8 -7 30 10 30 6 0 7 -4 4 -10 -3 -5 -3 -10 2 -11 4 0 16 -2 26
-4 9 -2 17 0 17 4 0 5 11 6 25 3 16 -3 25 0 25 8 0 7 -6 10 -12 7 -7 -2 -22
-1 -33 4 -14 6 -5 8 28 7 39 -2 48 -5 44 -18 -3 -11 3 -16 19 -16 12 0 20 4
18 8 -3 5 -10 6 -15 3 -5 -4 -9 -1 -9 4 0 6 4 11 8 11 5 0 6 20 2 45 -6 38 -4
45 9 44 32 -3 52 1 47 9 -3 5 -20 7 -38 4 -30 -5 -31 -4 -16 12 9 9 21 16 26
16 14 0 23 28 12 35 -5 3 -13 -3 -19 -12 -5 -10 -13 -14 -17 -10 -4 4 1 13 11
21 20 15 11 41 -11 32 -8 -3 -14 -2 -14 3 0 5 -10 11 -22 15 -18 5 -20 8 -9
15 9 6 5 9 -14 9 -15 0 -36 -9 -46 -19z m81 -36 c0 -9 -6 -13 -15 -9 -8 3 -14
0 -12 -7 1 -7 -5 -13 -13 -13 -32 -3 -34 -5 -20 -14 13 -9 13 -12 -3 -21 -9
-6 -14 -15 -11 -21 5 -7 1 -9 -9 -5 -11 4 -20 -1 -27 -13 -6 -11 -8 -20 -4
-20 3 0 1 -6 -5 -13 -6 -8 -8 -17 -4 -20 3 -4 1 -7 -7 -7 -9 0 -11 9 -6 30 6
31 -9 43 -17 13 -4 -14 -5 -13 -6 4 -1 26 14 39 25 21 6 -9 10 -5 14 12 4 15
13 24 23 24 14 -1 14 1 1 21 -16 24 -5 43 18 29 8 -5 9 -2 5 9 -4 10 -2 16 6
14 7 -1 11 3 10 10 -2 9 5 9 27 1 17 -5 30 -17 30 -25z m-130 -233 c0 -5 -5
-10 -11 -10 -5 0 -7 5 -4 10 3 6 8 10 11 10 2 0 4 -4 4 -10z m-497 -27 c-7 -2
-14 -19 -14 -36 -1 -25 -3 -27 -6 -9 -6 30 3 52 19 51 10 0 10 -2 1 -6z m-432
-32 c-17 -11 -42 -8 -41 5 0 5 4 9 9 9 5 0 13 3 17 8 4 4 12 3 18 -3 8 -8 7
-13 -3 -19z m36 -3 c-3 -8 -6 -5 -6 6 -1 11 2 17 5 13 3 -3 4 -12 1 -19z m110
-43 c6 0 15 -3 19 -7 4 -5 2 -8 -5 -8 -7 0 -9 -4 -6 -10 3 -5 0 -10 -7 -11
-10 0 -10 -2 0 -6 6 -2 12 -9 12 -15 0 -7 -5 -6 -14 2 -8 6 -12 18 -9 27 4 9
-5 24 -23 40 -16 13 -24 22 -17 19 6 -4 15 -1 19 6 6 9 10 5 14 -12 3 -14 11
-25 17 -25z m-76 28 c-11 -5 -11 -7 0 -14 12 -7 11 -9 -1 -10 -8 0 -23 -2 -32
-4 -10 -2 -16 2 -15 8 2 14 25 26 47 26 12 -1 12 -2 1 -6z m-61 -18 c0 -8 -2
-15 -4 -15 -2 0 -6 7 -10 15 -3 8 -1 15 4 15 6 0 10 -7 10 -15z m221 -34 c-9
-6 -11 -16 -6 -27 12 -30 14 -64 3 -64 -5 0 -7 9 -3 20 5 15 3 18 -8 14 -10
-3 -16 3 -19 20 -3 14 -1 23 3 20 5 -3 9 -1 9 5 0 5 -6 12 -12 14 -7 3 1 6 17
6 21 1 26 -2 16 -8z m-244 -46 c0 -8 -7 -15 -15 -15 -12 0 -12 3 -2 15 7 8 13
15 15 15 1 0 2 -7 2 -15z m393 -16 c0 -6 -4 -7 -10 -4 -5 3 -10 11 -10 16 0 6
5 7 10 4 6 -3 10 -11 10 -16z m-190 -10 c0 -13 -26 -40 -33 -33 -3 3 -3 14 0
25 6 20 33 27 33 8z m-52 -21 c-3 -20 -8 -23 -38 -20 -24 2 -31 0 -21 -6 9 -7
10 -12 2 -16 -6 -4 -11 -2 -11 3 0 6 -7 11 -16 11 -10 0 -14 -5 -10 -16 3 -9
2 -12 -5 -9 -6 4 -8 13 -5 20 3 8 -4 17 -15 20 -10 4 -19 11 -19 16 0 15 22
10 35 -8 12 -16 15 -16 32 -2 38 34 76 37 71 7z m252 -8 c13 -8 12 -12 -4 -27
-18 -16 -19 -16 -7 0 11 14 11 17 -3 17 -9 0 -16 5 -16 10 0 12 11 13 30 0z
m-175 -30 c3 -6 -1 -7 -9 -4 -18 7 -21 14 -7 14 6 0 13 -4 16 -10z m925 -30
c8 -5 11 -10 5 -10 -5 0 -17 5 -25 10 -8 5 -10 10 -5 10 6 0 17 -5 25 -10z
m27 -42 c-3 -8 -6 -5 -6 6 -1 11 2 17 5 13 3 -3 4 -12 1 -19z"/>
<path d="M1155 799 c-19 -9 -18 -9 3 -5 15 3 22 -1 22 -12 0 -12 3 -13 11 -5
6 6 8 16 5 22 -8 13 -14 13 -41 0z"/>
<path d="M1541 796 c-11 -14 -11 -16 2 -16 8 0 17 -6 20 -12 2 -7 8 -9 13 -5
5 4 4 11 -2 15 -6 4 -13 13 -15 21 -4 10 -7 10 -18 -3z"/>
<path d="M60 771 c0 -6 5 -13 10 -16 6 -3 10 1 10 9 0 9 -4 16 -10 16 -5 0
-10 -4 -10 -9z"/>
<path d="M1475 759 c-4 -11 -4 -23 -1 -26 3 -4 6 -1 6 6 0 7 5 9 12 5 7 -4 8
-3 4 4 -4 7 -2 12 4 12 6 0 8 5 5 10 -10 16 -23 12 -30 -11z"/>
<path d="M85 750 c-4 -6 -13 -9 -20 -6 -21 8 -23 -17 -3 -36 19 -19 26 -10 7
9 -9 9 -7 11 8 7 24 -6 40 13 25 28 -6 6 -12 6 -17 -2z"/>
<path d="M1460 710 c0 -5 5 -10 10 -10 6 0 10 5 10 10 0 6 -4 10 -10 10 -5 0
-10 -4 -10 -10z"/>
<path d="M16 685 c-3 -8 -1 -15 3 -15 5 0 11 7 15 15 3 8 1 15 -3 15 -5 0 -11
-7 -15 -15z"/>
<path d="M1562 691 c-10 -6 -10 -10 2 -21 9 -7 13 -17 9 -24 -4 -8 -3 -8 6 0
16 15 1 56 -17 45z"/>
<path d="M95 680 c-3 -6 -3 -19 0 -31 4 -13 -3 -41 -20 -75 -18 -37 -24 -59
-17 -66 6 -6 11 -4 16 7 3 9 2 13 -4 10 -15 -9 -12 7 5 29 14 19 15 19 15 -6
0 -15 5 -30 10 -33 6 -4 7 -11 4 -17 -4 -7 -2 -8 5 -4 6 4 9 12 5 17 -3 6 2 9
12 7 13 -2 18 2 15 12 -7 29 -11 65 -5 53 9 -20 34 -2 34 26 0 19 3 22 9 12 5
-8 7 -20 4 -28 -3 -7 1 -13 7 -13 9 0 7 -7 -5 -20 -19 -21 -15 -32 11 -36 10
-2 14 3 10 11 -6 16 13 79 22 71 3 -3 11 -1 19 5 10 9 13 8 13 -1 0 -17 35 -7
35 10 1 8 7 14 14 12 7 -1 10 1 7 6 -3 5 -19 7 -36 4 -19 -3 -30 0 -30 7 0 7
-6 11 -13 9 -7 -2 -12 2 -12 7 0 6 8 10 17 9 9 0 15 3 12 8 -9 14 -36 9 -51
-9 -14 -17 -14 -17 -8 1 6 19 5 19 -14 2 -11 -10 -18 -23 -15 -27 3 -5 1 -9
-5 -9 -5 0 -13 5 -16 10 -3 6 -15 10 -26 10 -24 0 -25 17 -1 23 15 4 15 5 0 6
-9 0 -20 -4 -23 -9z m17 -120 c3 -17 2 -33 -2 -35 -3 -2 -7 12 -8 31 -3 42 4
45 10 4z"/>
<path d="M266 665 c-3 -8 -1 -15 4 -15 6 0 10 7 10 15 0 8 -2 15 -4 15 -2 0
-6 -7 -10 -15z"/>
<path d="M798 666 c-10 -7 -15 -16 -12 -19 4 -3 13 1 21 9 9 8 14 17 12 19 -2
2 -12 -2 -21 -9z"/>
<path d="M1430 659 c0 -5 -4 -8 -9 -5 -5 3 -11 -1 -15 -9 -3 -8 -1 -17 4 -20
5 -3 7 -11 4 -18 -2 -7 2 -21 9 -31 13 -18 14 -17 15 13 0 17 -5 31 -11 32 -7
0 -3 4 8 9 11 5 15 9 8 9 -7 1 -10 8 -7 16 4 8 3 15 0 15 -3 0 -6 -5 -6 -11z"/>
<path d="M1546 661 c-4 -5 -2 -20 3 -33 9 -21 10 -21 10 10 1 32 -3 39 -13 23z"/>
<path d="M9605 630 c3 -5 8 -10 11 -10 2 0 4 5 4 10 0 6 -5 10 -11 10 -5 0 -7
-4 -4 -10z"/>
<path d="M1575 620 c3 -5 8 -10 11 -10 2 0 4 5 4 10 0 6 -5 10 -11 10 -5 0 -7
-4 -4 -10z"/>
<path d="M20 610 c0 -5 5 -10 10 -10 6 0 10 5 10 10 0 6 -4 10 -10 10 -5 0
-10 -4 -10 -10z"/>
<path d="M9415 610 c-3 -5 -1 -10 4 -10 6 0 11 5 11 10 0 6 -2 10 -4 10 -3 0
-8 -4 -11 -10z"/>
<path d="M1475 600 c-3 -5 -1 -10 4 -10 6 0 11 5 11 10 0 6 -2 10 -4 10 -3 0
-8 -4 -11 -10z"/>
<path d="M451 597 c2 -1 11 -8 20 -15 13 -9 16 -9 16 3 0 8 -9 15 -20 15 -11
0 -18 -1 -16 -3z"/>
<path d="M1288 583 c-24 -28 -11 -45 16 -20 21 21 24 37 7 37 -4 0 -15 -8 -23
-17z"/>
<path d="M1544 583 c-17 -51 -27 -63 -53 -57 l-26 5 21 -18 c23 -21 28 -53 7
-53 -7 0 -13 -5 -13 -11 0 -6 7 -8 16 -5 13 5 15 2 11 -13 -2 -11 0 -22 7 -24
7 -3 10 11 8 45 -2 27 0 48 5 47 19 -3 33 2 33 12 0 5 -4 7 -10 4 -13 -8 -13
25 0 45 8 13 10 12 10 -2 0 -10 5 -18 10 -18 15 0 12 29 -5 46 -13 14 -16 13
-21 -3z"/>
<path d="M6605 590 c-3 -5 -1 -10 4 -10 6 0 11 5 11 10 0 6 -2 10 -4 10 -3 0
-8 -4 -11 -10z"/>
<path d="M1375 580 c3 -5 8 -10 11 -10 2 0 4 5 4 10 0 6 -5 10 -11 10 -5 0 -7
-4 -4 -10z"/>
<path d="M1315 560 c-3 -6 1 -7 9 -4 18 7 21 14 7 14 -6 0 -13 -4 -16 -10z"/>
<path d="M1480 559 c0 -5 5 -7 10 -4 6 3 10 8 10 11 0 2 -4 4 -10 4 -5 0 -10
-5 -10 -11z"/>
<path d="M1366 551 c8 -8 43 -8 38 0 -2 4 -13 7 -24 6 -10 -1 -17 -3 -14 -6z"/>
<path d="M9240 550 c0 -5 5 -10 10 -10 6 0 10 5 10 10 0 6 -4 10 -10 10 -5 0
-10 -4 -10 -10z"/>
<path d="M9204 505 c-11 -22 -10 -24 7 -15 10 6 16 17 13 25 -8 19 -7 19 -20
-10z"/>
<path d="M6796 502 c-4 -7 -18 -10 -32 -8 -14 3 -22 1 -19 -5 4 -5 13 -9 21
-9 8 0 14 -5 14 -11 0 -6 -6 -9 -14 -6 -16 6 -33 -44 -21 -63 3 -5 1 -10 -5
-10 -6 0 -8 -4 -5 -10 9 -15 25 -12 25 5 0 8 9 15 20 15 21 0 27 -15 10 -25
-5 -3 -10 -11 -10 -18 0 -6 7 -1 16 12 l17 24 13 -29 13 -29 -3 32 c-2 17 -7
37 -11 42 -3 6 1 14 9 17 9 3 16 10 16 14 0 14 -33 21 -44 10 -8 -8 -6 -9 7
-4 13 5 16 2 11 -10 -9 -25 -30 -19 -30 8 0 14 4 22 8 20 4 -3 8 0 8 6 0 6 4
9 8 6 5 -3 9 1 9 9 0 8 -4 12 -8 9 -4 -2 -9 1 -11 8 -3 9 -6 9 -12 0z"/>
<path d="M6980 469 c0 -5 5 -7 10 -4 6 3 10 8 10 11 0 2 -4 4 -10 4 -5 0 -10
-5 -10 -11z"/>
<path d="M137 441 c-7 -30 3 -39 40 -32 4 0 -1 7 -12 14 -10 8 -15 19 -11 25
4 7 3 12 -2 12 -5 0 -12 -9 -15 -19z"/>
<path d="M1580 450 c0 -5 5 -10 10 -10 6 0 10 5 10 10 0 6 -4 10 -10 10 -5 0
-10 -4 -10 -10z"/>
<path d="M6880 449 c0 -5 5 -7 10 -4 6 3 10 8 10 11 0 2 -4 4 -10 4 -5 0 -10
-5 -10 -11z"/>
<path d="M7030 456 c0 -2 7 -7 16 -10 8 -3 12 -2 9 4 -6 10 -25 14 -25 6z"/>
<path d="M9211 436 c-8 -10 -9 -16 -1 -21 5 -3 10 -1 10 5 0 6 5 8 10 5 6 -3
10 -2 10 4 0 17 -17 21 -29 7z"/>
<path d="M6620 430 c0 -5 6 -10 14 -10 8 0 18 5 21 10 3 6 -3 10 -14 10 -12 0
-21 -4 -21 -10z"/>
<path d="M7100 429 c0 -5 5 -7 10 -4 6 3 10 8 10 11 0 2 -4 4 -10 4 -5 0 -10
-5 -10 -11z"/>
<path d="M1345 420 c-3 -5 -2 -10 4 -10 5 0 13 5 16 10 3 6 2 10 -4 10 -5 0
-13 -4 -16 -10z"/>
<path d="M6640 392 c0 -12 3 -12 15 -2 8 7 15 13 15 15 0 1 -7 2 -15 2 -8 0
-15 -7 -15 -15z"/>
<path d="M7074 399 c-4 -7 -3 -9 4 -5 5 3 13 0 15 -6 4 -9 6 -10 6 -1 1 17
-16 25 -25 12z"/>
<path d="M1440 380 c0 -11 4 -20 9 -20 5 0 11 9 14 20 3 13 0 20 -9 20 -8 0
-14 -9 -14 -20z"/>
<path d="M1540 390 c0 -5 7 -10 15 -10 8 0 15 5 15 10 0 6 -7 10 -15 10 -8 0
-15 -4 -15 -10z"/>
<path d="M6605 390 c3 -5 8 -10 11 -10 2 0 4 5 4 10 0 6 -5 10 -11 10 -5 0 -7
-4 -4 -10z"/>
<path d="M6920 350 c0 -5 5 -10 10 -10 6 0 10 5 10 10 0 6 -4 10 -10 10 -5 0
-10 -4 -10 -10z"/>
<path d="M7085 350 c3 -5 8 -10 11 -10 2 0 4 5 4 10 0 6 -5 10 -11 10 -5 0 -7
-4 -4 -10z"/>
<path d="M6868 338 c18 -18 15 -38 -5 -38 -15 0 -13 -4 7 -20 l25 -20 -38 0
c-22 0 -45 -7 -55 -16 -15 -15 -16 -15 -23 2 -7 17 -8 17 -8 -3 -1 -13 3 -23
7 -23 4 0 8 -11 8 -24 0 -37 -13 -21 -21 24 -4 22 -11 40 -16 40 -5 0 -8 -3
-7 -7 2 -5 -5 -19 -15 -33 -11 -16 -17 -19 -17 -9 0 8 5 20 11 26 8 8 8 13 0
17 -6 4 -11 3 -11 -2 0 -6 -7 -13 -16 -16 -8 -3 -12 -2 -9 3 3 5 1 12 -5 16
-6 4 -8 11 -5 16 4 5 3 9 -2 10 -4 0 -16 2 -25 4 -10 2 -18 -1 -18 -6 0 -6 -4
-7 -10 -4 -5 3 -10 -3 -10 -15 0 -13 4 -18 11 -14 7 4 10 -3 7 -22 -1 -15 2
-29 8 -31 7 -2 10 6 7 24 -3 16 -1 24 4 18 4 -5 16 -14 26 -20 10 -5 18 -13
18 -17 -1 -5 -1 -18 -1 -31 0 -14 -6 -24 -15 -24 -10 0 -12 4 -5 12 15 19 -6
23 -67 15 -29 -3 -53 -3 -53 2 0 4 6 8 13 8 7 0 13 9 14 20 1 11 -2 20 -8 20
-5 0 -9 -4 -9 -9 0 -5 -13 -11 -30 -13 -22 -3 -30 0 -30 10 0 12 -3 12 -15 2
-17 -14 -21 -35 -5 -25 6 3 10 1 10 -4 0 -6 -13 -11 -29 -11 -16 0 -37 -7 -46
-16 -9 -9 -25 -14 -35 -11 -13 3 -20 0 -20 -9 0 -8 -7 -14 -15 -14 -8 0 -15
-7 -15 -16 0 -13 -3 -14 -14 -5 -11 9 -15 7 -21 -11 -4 -13 -7 -26 -6 -30 0
-4 -6 -5 -14 -2 -8 4 -15 1 -15 -6 0 -9 -6 -8 -18 3 -10 10 -23 17 -28 17 -5
0 -1 -5 9 -11 13 -7 16 -17 11 -32 -6 -18 -4 -20 7 -10 10 8 20 9 29 3 26 -17
41 -11 36 13 -3 17 1 23 15 24 11 1 19 -5 19 -13 0 -9 -5 -12 -11 -8 -8 4 -7
0 0 -15 11 -19 14 -20 27 -6 20 19 30 20 14 0 -11 -13 -8 -15 14 -15 16 0 25
4 21 10 -3 5 -2 10 4 10 5 0 12 -4 16 -9 3 -6 119 -10 277 -11 150 0 269 2
265 6 -3 4 5 15 18 26 14 11 22 24 19 30 -4 6 -3 13 2 17 22 15 64 74 58 82
-3 5 -1 9 4 9 14 0 21 62 10 83 -5 11 -5 17 2 17 5 0 10 -7 10 -16 0 -8 5 -12
10 -9 14 9 13 -8 -2 -23 -7 -7 -8 -12 -2 -12 17 0 44 38 31 43 -9 3 -8 8 2 21
13 15 12 18 -7 23 -12 3 -20 9 -17 13 3 5 0 12 -6 16 -7 4 -9 3 -5 -4 3 -6 2
-13 -4 -17 -6 -4 -7 -11 -4 -17 4 -7 2 -8 -5 -4 -6 4 -8 12 -5 18 4 5 -5 3
-18 -6 -14 -9 -40 -15 -59 -14 -23 2 -33 -1 -31 -9 1 -8 -8 -13 -22 -13 -19 0
-24 5 -21 19 2 13 -4 21 -18 25 -18 5 -20 8 -7 16 13 8 12 10 -2 10 -10 0 -18
5 -18 10 0 6 -5 10 -12 10 -9 0 -9 -3 0 -12z m32 -48 c0 -5 -4 -10 -10 -10 -5
0 -10 5 -10 10 0 6 5 10 10 10 6 0 10 -4 10 -10z m8 -50 c-2 -29 -22 -42 -30
-19 -3 9 -9 9 -25 1 -16 -9 -22 -9 -26 2 -4 10 1 12 16 9 18 -4 19 -3 7 6 -12
9 -9 10 13 7 19 -3 30 0 34 10 9 23 13 16 11 -16z m107 21 c7 -12 -12 -24 -25
-16 -11 7 -4 25 10 25 5 0 11 -4 15 -9z m-135 -87 c0 -2 -7 -4 -15 -4 -8 0
-15 4 -15 10 0 5 7 7 15 4 8 -4 15 -8 15 -10z m-486 -133 c3 -4 -6 -6 -19 -3
-14 2 -25 6 -25 8 0 8 39 4 44 -5z m-99 -11 c3 -5 1 -10 -4 -10 -6 0 -11 5
-11 10 0 6 2 10 4 10 3 0 8 -4 11 -10z"/>
<path d="M6960 330 c0 -5 5 -10 11 -10 5 0 7 5 4 10 -3 6 -8 10 -11 10 -2 0
-4 -4 -4 -10z"/>
<path d="M194 318 c1 -6 18 -13 37 -15 l34 -3 -25 14 c-16 9 -27 11 -31 4 -4
-7 -8 -6 -12 1 -4 8 -5 8 -3 -1z"/>
<path d="M1530 310 c0 -6 4 -10 9 -10 5 0 12 -8 14 -17 4 -14 5 -13 6 3 0 12
-6 24 -14 28 -8 3 -15 1 -15 -4z"/>
<path d="M6700 310 c-10 -6 -11 -10 -3 -10 7 0 10 -6 7 -13 -3 -8 1 -14 9 -14
7 0 13 8 12 18 -2 25 -8 30 -25 19z"/>
<path d="M6830 300 c0 -5 -7 -10 -15 -10 -23 0 -18 -16 5 -17 14 -1 20 4 20
18 0 10 -2 19 -5 19 -3 0 -5 -4 -5 -10z"/>
<path d="M9040 279 c0 -5 5 -7 10 -4 6 3 10 8 10 11 0 2 -4 4 -10 4 -5 0 -10
-5 -10 -11z"/>
<path d="M254 271 c4 -5 0 -11 -6 -14 -7 -2 -9 -8 -5 -13 4 -5 12 -2 17 6 13
20 12 30 -1 30 -5 0 -8 -4 -5 -9z"/>
<path d="M1517 266 c-4 -10 -1 -13 9 -9 15 6 19 23 5 23 -5 0 -11 -7 -14 -14z"/>
<path d="M6580 270 c0 -5 5 -10 10 -10 6 0 10 5 10 10 0 6 -4 10 -10 10 -5 0
-10 -4 -10 -10z"/>
<path d="M1605 260 c-3 -5 -1 -10 4 -10 6 0 11 5 11 10 0 6 -2 10 -4 10 -3 0
-8 -4 -11 -10z"/>
<path d="M1236 245 c-6 -17 3 -47 17 -57 6 -3 11 -42 12 -85 2 -43 3 -81 4
-84 0 -4 20 -7 44 -6 24 0 49 -3 55 -7 12 -7 16 5 12 34 -1 8 1 12 5 8 4 -4
18 -3 32 3 16 6 22 6 18 -1 -3 -6 -13 -10 -21 -10 -8 0 -12 -4 -9 -10 3 -5 1
-10 -5 -10 -6 0 -9 -3 -7 -7 3 -5 39 -7 81 -5 69 3 74 5 60 19 -14 15 -14 17
3 26 34 19 63 61 63 89 -1 7 -7 0 -15 -17 -7 -16 -14 -26 -14 -21 -1 6 -8 1
-17 -10 -8 -10 -13 -13 -9 -6 3 6 1 12 -6 12 -10 0 -10 3 -1 12 7 7 12 17 12
22 0 6 -5 3 -11 -6 -5 -9 -16 -15 -24 -12 -8 4 -12 11 -8 17 3 6 1 7 -5 3 -8
-5 -12 0 -12 13 0 12 -4 21 -9 21 -5 0 -8 7 -7 16 0 9 -5 19 -12 21 -7 3 -10
-1 -6 -11 3 -9 2 -16 -3 -16 -5 0 -10 -7 -10 -15 0 -11 4 -12 14 -4 10 9 15 5
24 -19 6 -17 19 -34 30 -37 32 -10 11 -24 -31 -21 -22 2 -41 -2 -44 -8 -2 -6
-5 -3 -5 7 -1 9 4 17 9 17 6 0 10 7 10 15 0 8 -5 15 -11 15 -5 0 -8 -4 -4 -9
3 -5 1 -12 -4 -15 -5 -4 -11 -1 -14 6 -2 7 -3 5 -1 -6 4 -26 -19 -46 -46 -39
-14 4 -21 2 -17 -4 3 -5 0 -10 -8 -10 -8 0 -15 7 -15 14 0 8 -4 11 -10 8 -11
-7 -14 28 -3 39 13 12 10 46 -4 46 -10 0 -12 -7 -8 -20 5 -15 3 -18 -9 -14
-16 6 -17 9 -20 56 -2 27 19 47 27 25 2 -6 6 -1 9 11 4 12 2 20 -3 16 -5 -3
-9 1 -9 8 0 8 -5 6 -11 -5 -10 -17 -12 -17 -29 3 -15 17 -19 18 -24 5z m27
-35 c3 -11 1 -18 -4 -14 -5 3 -9 12 -9 20 0 20 7 17 13 -6z"/>
<path d="M6540 250 c0 -5 5 -10 10 -10 6 0 10 5 10 10 0 6 -4 10 -10 10 -5 0
-10 -4 -10 -10z"/>
<path d="M6520 236 c0 -9 5 -16 10 -16 6 0 10 4 10 9 0 6 -4 13 -10 16 -5 3
-10 -1 -10 -9z"/>
<path d="M8996 234 c-17 -16 -21 -34 -8 -34 4 0 12 11 19 25 13 29 11 31 -11
9z"/>
<path d="M1025 230 c3 -5 8 -10 11 -10 2 0 4 5 4 10 0 6 -5 10 -11 10 -5 0 -7
-4 -4 -10z"/>
<path d="M1580 230 c0 -5 5 -10 10 -10 6 0 10 5 10 10 0 6 -4 10 -10 10 -5 0
-10 -4 -10 -10z"/>
<path d="M6440 230 c0 -5 5 -10 10 -10 6 0 10 5 10 10 0 6 -4 10 -10 10 -5 0
-10 -4 -10 -10z"/>
<path d="M310 220 c0 -5 5 -10 10 -10 6 0 10 5 10 10 0 6 -4 10 -10 10 -5 0
-10 -4 -10 -10z"/>
<path d="M1323 217 c-3 -7 -3 -9 2 -5 4 4 14 0 22 -8 16 -16 35 -15 34 1 -2
15 -50 25 -58 12z"/>
<path d="M1480 219 c0 -5 5 -7 10 -4 6 3 10 8 10 11 0 2 -4 4 -10 4 -5 0 -10
-5 -10 -11z"/>
<path d="M1517 223 c-10 -9 -9 -23 1 -23 5 0 9 7 9 15 0 17 -1 18 -10 8z"/>
<path d="M1640 226 c0 -2 7 -6 15 -10 8 -3 15 -1 15 4 0 6 -7 10 -15 10 -8 0
-15 -2 -15 -4z"/>
<path d="M280 209 c0 -5 5 -7 10 -4 6 3 10 8 10 11 0 2 -4 4 -10 4 -5 0 -10
-5 -10 -11z"/>
<path d="M8931 189 c-7 -12 -10 -24 -7 -27 3 -3 6 -1 6 5 0 6 9 9 20 6 23 -6
27 9 7 25 -10 8 -16 6 -26 -9z"/>
<path d="M9010 199 c0 -5 5 -7 10 -4 6 3 10 8 10 11 0 2 -4 4 -10 4 -5 0 -10
-5 -10 -11z"/>
<path d="M1404 185 c3 -23 11 -25 23 -7 9 15 7 18 -7 19 -10 1 -17 -4 -16 -12z"/>
<path d="M6330 189 c0 -5 5 -7 10 -4 6 3 10 8 10 11 0 2 -4 4 -10 4 -5 0 -10
-5 -10 -11z"/>
<path d="M8835 180 c3 -5 14 -10 23 -10 15 0 15 2 2 10 -20 13 -33 13 -25 0z"/>
<path d="M920 170 c0 -5 5 -10 10 -10 6 0 10 5 10 10 0 6 -4 10 -10 10 -5 0
-10 -4 -10 -10z"/>
<path d="M1674 171 c7 -10 31 -9 42 2 4 4 -5 7 -20 7 -15 0 -25 -4 -22 -9z"/>
<path d="M1360 160 c19 -6 20 -8 6 -9 -15 -1 -16 -4 -6 -16 15 -18 30 -11 30
16 0 14 -7 19 -27 18 l-28 -1 25 -8z"/>
<path d="M1640 160 c0 -5 5 -10 11 -10 5 0 7 5 4 10 -3 6 -8 10 -11 10 -2 0
-4 -4 -4 -10z"/>
<path d="M8805 143 c-6 -24 -13 -33 -33 -35 -14 -2 -27 -8 -29 -15 -7 -19 58
-9 73 12 8 10 14 14 14 9 0 -6 -5 -15 -12 -22 -9 -9 -8 -12 4 -12 9 0 18 -6
21 -12 3 -10 8 -10 16 -2 8 7 9 18 2 36 -10 26 -6 38 11 38 5 0 6 -4 3 -10 -3
-5 -1 -18 5 -27 11 -16 11 -16 6 -1 -3 10 -1 20 4 23 6 4 10 1 10 -5 0 -7 6
-5 15 4 17 17 20 30 5 21 -5 -3 -10 0 -10 8 0 11 -10 12 -45 7 -29 -4 -46 -3
-49 4 -2 6 -7 -3 -11 -21z"/>
<path d="M240 137 c0 -14 4 -28 9 -31 5 -4 8 5 6 19 -3 35 -15 44 -15 12z"/>
<path d="M1020 150 c0 -5 5 -10 10 -10 6 0 10 5 10 10 0 6 -4 10 -10 10 -5 0
-10 -4 -10 -10z"/>
<path d="M1060 150 c0 -5 5 -10 11 -10 5 0 7 5 4 10 -3 6 -8 10 -11 10 -2 0
-4 -4 -4 -10z"/>
<path d="M177 130 c-10 -12 -15 -25 -11 -31 3 -5 0 -17 -8 -26 -12 -15 -10
-16 14 -10 22 6 26 4 22 -8 -3 -8 -10 -13 -14 -10 -5 3 -12 0 -16 -6 -4 -8 -3
-9 4 -5 7 4 12 2 12 -5 0 -7 8 -9 23 -5 12 4 33 9 47 11 47 8 73 14 77 19 10
9 -9 27 -23 22 -10 -4 -14 2 -13 17 0 12 3 16 6 9 2 -6 9 -9 14 -6 6 3 5 11
-2 20 -15 18 -41 0 -32 -23 5 -12 2 -15 -10 -10 -9 3 -17 2 -17 -3 0 -14 -33
-7 -61 12 l-24 16 26 -5 c16 -3 30 0 34 8 6 9 2 11 -13 7 -16 -5 -20 -2 -17
13 5 24 3 24 -18 -1z"/>
<path d="M6233 143 c-16 -6 -17 -33 -2 -33 6 0 8 -7 5 -17 -5 -13 0 -11 19 7
14 14 21 26 16 28 -6 2 -9 8 -5 13 5 10 -12 11 -33 2z"/>
<path d="M1734 128 c-4 -6 -3 -8 4 -4 6 3 13 2 17 -4 4 -6 11 -8 16 -5 5 4 9
-2 10 -12 0 -11 3 -13 6 -5 11 28 -37 56 -53 30z"/>
<path d="M8760 130 c0 -5 5 -10 11 -10 5 0 7 5 4 10 -3 6 -8 10 -11 10 -2 0
-4 -4 -4 -10z"/>
<path d="M6163 115 c-3 -9 -3 -19 1 -22 3 -4 6 -1 6 6 0 7 4 9 10 6 6 -3 7 1
4 9 -8 20 -13 20 -21 1z"/>
<path d="M9360 100 c-13 -8 -12 -10 3 -10 9 0 17 5 17 10 0 12 -1 12 -20 0z"/>
<path d="M1365 90 c-16 -7 -17 -9 -3 -9 9 -1 20 4 23 9 7 11 7 11 -20 0z"/>
<path d="M1721 84 c0 -11 3 -14 6 -6 3 7 2 16 -1 19 -3 4 -6 -2 -5 -13z"/>
<path d="M20 74 c0 -8 5 -12 10 -9 6 4 8 11 5 16 -9 14 -15 11 -15 -7z"/>
<path d="M1685 80 c3 -5 11 -10 16 -10 6 0 7 5 4 10 -3 6 -11 10 -16 10 -6 0
-7 -4 -4 -10z"/>
<path d="M1660 71 c0 -10 31 -31 45 -31 11 0 -5 20 -26 30 -12 7 -19 7 -19 1z"/>
<path d="M1800 69 c0 -5 5 -7 10 -4 6 3 10 8 10 11 0 2 -4 4 -10 4 -5 0 -10
-5 -10 -11z"/>
<path d="M6139 52 c-12 -31 -6 -39 28 -37 54 4 59 6 35 16 -17 6 -22 14 -17
28 9 30 -35 23 -46 -7z"/>
<path d="M8345 70 c3 -5 8 -10 11 -10 2 0 4 5 4 10 0 6 -5 10 -11 10 -5 0 -7
-4 -4 -10z"/>
<path d="M8745 73 c-11 -3 -24 -9 -29 -13 -5 -5 1 -6 13 -3 13 3 21 1 21 -6 0
-7 -6 -9 -12 -5 -9 5 -9 3 0 -7 11 -12 15 -11 26 3 7 10 17 14 22 10 4 -4 2 1
-5 11 -7 9 -14 16 -15 16 0 -1 -10 -3 -21 -6z"/>
<path d="M9220 70 c0 -5 5 -10 11 -10 5 0 7 5 4 10 -3 6 -8 10 -11 10 -2 0 -4
-4 -4 -10z"/>
<path d="M9478 50 c-5 -34 -1 -37 19 -12 13 15 14 15 9 0 -2 -9 2 -19 10 -22
8 -3 13 -2 10 3 -3 5 1 11 9 15 8 3 15 10 15 17 0 6 -7 8 -15 5 -9 -3 -18 1
-21 9 -10 26 -32 16 -36 -15z"/>
<path d="M9560 70 c0 -5 5 -10 10 -10 6 0 10 5 10 10 0 6 -4 10 -10 10 -5 0
-10 -4 -10 -10z"/>
<path d="M9620 70 c0 -5 5 -10 10 -10 6 0 10 5 10 10 0 6 -4 10 -10 10 -5 0
-10 -4 -10 -10z"/>
<path d="M126 56 c4 -10 -4 -16 -25 -21 -31 -7 -39 -19 -21 -30 6 -3 10 -2 10
3 0 5 9 12 19 15 14 3 18 1 14 -9 -3 -9 0 -12 9 -9 16 6 13 51 -3 61 -5 3 -6
-2 -3 -10z"/>
<path d="M1750 58 c0 -4 5 -10 12 -14 20 -12 -42 -25 -64 -13 -14 8 -24 7 -36
-3 -10 -8 -13 -9 -9 -1 5 7 0 16 -11 22 -15 8 -23 6 -36 -8 -9 -9 -16 -19 -16
-22 0 -2 41 -5 90 -5 86 -1 95 2 91 29 0 4 4 7 9 7 6 0 10 4 10 8 0 4 -9 8
-20 8 -11 0 -20 -4 -20 -8z m-113 -24 c-3 -3 -12 -4 -19 -1 -8 3 -5 6 6 6 11
1 17 -2 13 -5z"/>
<path d="M8240 49 c0 -5 5 -7 10 -4 6 3 10 8 10 11 0 2 -4 4 -10 4 -5 0 -10
-5 -10 -11z"/>
<path d="M8815 51 c-3 -5 -2 -12 3 -15 5 -3 9 1 9 9 0 17 -3 19 -12 6z"/>
<path d="M8944 35 l-20 -22 37 1 c32 1 36 3 29 20 -10 27 -21 28 -46 1z"/>
<path d="M9132 40 c-12 -19 -11 -20 8 -8 20 13 27 28 12 28 -4 0 -13 -9 -20
-20z"/>
<path d="M9310 40 c-6 -11 -8 -20 -6 -20 3 0 10 9 16 20 6 11 8 20 6 20 -3 0
-10 -9 -16 -20z"/>
<path d="M9425 50 c3 -5 8 -10 11 -10 2 0 4 5 4 10 0 6 -5 10 -11 10 -5 0 -7
-4 -4 -10z"/>
<path d="M685 30 c-3 -5 -1 -10 4 -10 6 0 11 5 11 10 0 6 -2 10 -4 10 -3 0 -8
-4 -11 -10z"/>
<path d="M1865 30 c-3 -5 1 -10 9 -10 8 0 18 5 21 10 3 6 -1 10 -9 10 -8 0
-18 -4 -21 -10z"/>
<path d="M8280 29 c0 -5 5 -7 10 -4 6 3 10 8 10 11 0 2 -4 4 -10 4 -5 0 -10
-5 -10 -11z"/>
<path d="M8840 30 c0 -5 5 -10 11 -10 5 0 7 5 4 10 -3 6 -8 10 -11 10 -2 0 -4
-4 -4 -10z"/>
<path d="M9180 28 c15 -14 113 -21 105 -7 -3 4 -20 7 -39 7 -19 0 -44 3 -57 7
-20 7 -21 6 -9 -7z"/>
<path d="M1053 23 c-15 -5 -17 -23 -4 -23 5 0 11 7 15 15 3 8 4 15 3 14 -1 0
-8 -3 -14 -6z"/>
<path d="M9422 21 c-11 -6 -9 -9 6 -13 15 -4 19 -2 15 8 -6 16 -4 16 -21 5z"/>
<path d="M9540 20 c0 -6 7 -10 15 -10 8 0 15 2 15 4 0 2 -7 6 -15 10 -8 3 -15
1 -15 -4z"/>
<path d="M160 10 c0 -6 7 -10 15 -10 8 0 15 2 15 4 0 2 -7 6 -15 10 -8 3 -15
1 -15 -4z"/>
<path d="M206 12 c-2 -4 9 -9 25 -10 16 -1 29 2 29 8 0 12 -47 14 -54 2z"/>
<path d="M758 13 c7 -3 16 -2 19 1 4 3 -2 6 -13 5 -11 0 -14 -3 -6 -6z"/>
<path d="M9468 3 c6 -2 18 -2 25 0 6 3 1 5 -13 5 -14 0 -19 -2 -12 -5z"/>
</g>
</svg>
